<svg xmlns="http://www.w3.org/2000/svg" width="174" height="146" viewBox="0 0 174 146" fill="none">
  <path d="M76.6527 121.572V121.572C76.6527 136.392 61.2368 148.406 42.2207 148.406V148.406L42.2207 121.572H76.6527Z" fill="#3699FF"/>
  <path d="M145.518 94.739C126.502 94.739 111.086 82.725 111.086 67.9053H145.518V94.739Z" fill="#D6DA34"/>
  <path d="M42.4703 154.133V154.133C19.3617 154.133 0.628906 139.542 0.628906 121.544V121.544H42.4703L42.4703 154.133Z" fill="#6ED47C"/>
  <path d="M42.2206 135.267V135.267C32.5156 135.267 24.6484 129.136 24.6484 121.573V121.573H42.2206V135.267Z" fill="#D5E155"/>
  <path d="M179.432 0.862305L162.216 0.862305C152.708 0.862305 145 6.86925 145 14.2792V14.2792L162.216 14.2792C171.724 14.2792 179.432 8.27223 179.432 0.862305V0.862305Z" fill="#6ED47C"/>
  <path d="M76.6523 108.156H93.7813C103.337 108.156 111.084 114.163 111.084 121.573V121.573H93.9554C84.3989 121.573 76.6523 115.566 76.6523 108.156V108.156Z" fill="#6ED47C"/>
  <path d="M111.086 148.406L111.086 121.573C111.086 106.753 126.502 94.7388 145.518 94.7388V94.7388V121.573C145.518 136.392 130.102 148.406 111.086 148.406V148.406Z" fill="#6ED47C"/>
  <path d="M128.301 121.48V108.177C128.301 100.755 136.009 94.7388 145.517 94.7388V94.7388V108.042C145.517 115.463 137.809 121.48 128.301 121.48V121.48Z" fill="#2D3652"/>
  <path d="M100.875 94.6463C100.875 90.2002 105.5 86.5962 111.205 86.5962V86.5962C116.91 86.5962 121.534 90.2002 121.534 94.6463V94.6463C121.534 99.0924 116.91 102.696 111.205 102.696V102.696C105.5 102.696 100.875 99.0924 100.875 94.6463V94.6463Z" fill="#FF743C"/>
  <path d="M106.098 94.6925C106.098 92.4696 108.41 90.6675 111.262 90.6675V90.6675C114.115 90.6675 116.427 92.4696 116.427 94.6925V94.6925C116.427 96.9155 114.115 98.7176 111.262 98.7176V98.7176C108.41 98.7176 106.098 96.9155 106.098 94.6925V94.6925Z" fill="#FFC700"/>
  <path d="M145.518 54.3954C145.518 46.9855 137.81 40.9785 128.302 40.9785V40.9785C118.794 40.9785 111.086 46.9855 111.086 54.3954V54.3954C111.086 61.8053 118.794 67.8123 128.302 67.8123H145.518V54.3954Z" fill="#FF743C"/>
  <path d="M145.082 14.0806V23.7795C145.082 29.136 139.506 33.4784 132.629 33.4784V23.7795C132.629 18.423 138.204 14.0806 145.082 14.0806Z" fill="#A04AE3"/>
  <path d="M145.517 60.8727C145.517 57.0401 141.53 53.9331 136.612 53.9331V53.9331C131.694 53.9331 127.707 57.0401 127.707 60.8727V60.8727C127.707 64.7056 131.694 67.8126 136.612 67.8126H145.517V60.8727Z" fill="#FFC700"/>
  <path d="M76.6523 134.99C76.6523 127.58 84.3603 121.573 93.8683 121.573V121.573C103.376 121.573 111.084 127.58 111.084 134.99V134.99C111.084 142.399 103.376 148.406 93.8683 148.406V148.406C84.3603 148.406 76.6523 142.399 76.6523 134.99V134.99Z" fill="#FF743C"/>
  <path d="M84.3711 134.851C84.3711 130.737 88.6504 127.402 93.9289 127.402V127.402C99.2074 127.402 103.487 130.737 103.487 134.851V134.851C103.487 138.964 99.2074 142.299 93.9289 142.299V142.299C88.6504 142.299 84.3711 138.964 84.3711 134.851V134.851Z" fill="#2D3652"/>
  <path d="M145.398 40.9788C145.398 26.159 160.814 14.145 179.83 14.145V40.9788L145.398 40.9788Z" fill="#FF743C"/>
  <path d="M179.83 94.6462V94.6462C160.814 94.6462 145.398 82.6322 145.398 67.8125V67.8125H179.83V94.6462Z" fill="#3699FF"/>
  <path d="M145.398 67.8123V67.8123C145.398 52.9923 160.814 40.9785 179.83 40.9785V40.9785V67.8123H145.398Z" fill="#6ED47C"/>
  <path d="M162.258 67.8126V67.8126C162.258 60.2493 170.125 54.1182 179.83 54.1182V54.1182V67.8126H162.258Z" fill="#D5E155"/>
  <path d="M145.517 135.031C145.517 142.441 153.225 148.448 162.733 148.448V148.448C172.241 148.448 179.949 142.441 179.949 135.031V135.031C179.949 127.621 172.241 121.614 162.733 121.614H145.517V135.031Z" fill="#FFC700"/>
  <path d="M145.517 128.554C145.517 132.387 149.503 135.494 154.422 135.494V135.494C159.339 135.494 163.326 132.387 163.326 128.554V128.554C163.326 124.721 159.339 121.614 154.422 121.614H145.517V128.554Z" fill="#FF743C"/>
  <path d="M162.614 94.646C172.122 94.646 179.83 100.653 179.83 108.063V108.063C179.83 115.473 172.122 121.48 162.614 121.48V121.48C153.106 121.48 145.398 115.473 145.398 108.063V108.063C145.398 100.653 153.106 94.646 162.614 94.646V94.646Z" fill="#FF743C"/>
  <path d="M162.792 100.661C168.07 100.661 172.35 103.996 172.35 108.109V108.109C172.35 112.223 168.07 115.558 162.792 115.558V115.558C157.513 115.558 153.234 112.223 153.234 108.109V108.109C153.234 103.996 157.513 100.661 162.792 100.661V100.661Z" fill="#2D3652"/>
</svg>