<svg width="453" height="343" viewBox="0 0 453 343" fill="none" xmlns="http://www.w3.org/2000/svg">
<mask id="mask0_93_329" style="mask-type:alpha" maskUnits="userSpaceOnUse" x="0" y="0" width="463" height="348">
<rect width="463" height="348" fill="white"/>
</mask>
<g mask="url(#mask0_93_329)">
<path d="M289.375 290.199C289.375 322.231 263.463 348.199 231.5 348.199L231.5 290.199H289.375Z" fill="#3699FF"/>
<path d="M405.125 232.199C373.162 232.199 347.25 206.231 347.25 174.199H405.125V232.199Z" fill="#D6DA34"/>
<path d="M231.919 360.577C193.077 360.577 161.59 329.04 161.59 290.139H231.919V360.577Z" fill="#6ED47C"/>
<path d="M231.501 319.799C215.188 319.799 201.965 306.547 201.965 290.199H231.501V319.799Z" fill="#D5E155"/>
<path d="M462.133 29.2891L433.195 29.2891C417.214 29.2891 404.258 42.2728 404.258 58.2891H433.195C449.177 58.2891 462.133 45.3053 462.133 29.2891Z" fill="#6ED47C"/>
<path d="M289.375 261.199H318.166C334.229 261.199 347.25 274.183 347.25 290.199H318.459C302.396 290.199 289.375 277.215 289.375 261.199Z" fill="#6ED47C"/>
<path d="M347.25 348.199V290.199C347.25 258.167 373.162 232.199 405.125 232.199V290.199C405.125 322.231 379.213 348.199 347.25 348.199Z" fill="#6ED47C"/>
<path d="M376.188 289.999V261.245C376.188 245.204 389.143 232.199 405.125 232.199V260.953C405.125 276.995 392.169 289.999 376.188 289.999Z" fill="#2D3652"/>
<path d="M330.088 232C330.088 222.39 337.861 214.6 347.45 214.6C357.04 214.6 364.813 222.39 364.813 232C364.813 241.61 357.04 249.4 347.45 249.4C337.861 249.4 330.088 241.61 330.088 232Z" fill="#FF743C"/>
<path d="M338.869 232.098C338.869 227.294 342.756 223.398 347.55 223.398C352.345 223.398 356.232 227.294 356.232 232.098C356.232 236.903 352.345 240.798 347.55 240.798C342.756 240.798 338.869 236.903 338.869 232.098Z" fill="#FFC700"/>
<path d="M405.125 145C405.125 128.984 392.169 116 376.188 116C360.206 116 347.25 128.984 347.25 145C347.25 161.016 360.206 174 376.188 174H405.125V145Z" fill="#FF743C"/>
<path d="M404.392 57.8594V78.8232C404.392 90.4011 395.021 99.7871 383.461 99.7871V78.8232C383.461 67.2453 392.832 57.8594 404.392 57.8594Z" fill="#A04AE3"/>
<path d="M405.125 159C405.125 150.716 398.424 144 390.157 144C381.891 144 375.189 150.716 375.189 159C375.189 167.284 381.891 174 390.157 174H405.125V159Z" fill="#FFC700"/>
<path d="M289.375 319.199C289.375 303.183 302.331 290.199 318.312 290.199C334.294 290.199 347.25 303.183 347.25 319.199C347.25 335.215 334.294 348.199 318.312 348.199C302.331 348.199 289.375 335.215 289.375 319.199Z" fill="#FF743C"/>
<path d="M302.348 318.899C302.348 310.007 309.541 302.799 318.413 302.799C327.285 302.799 334.478 310.007 334.478 318.899C334.478 327.79 327.285 334.999 318.413 334.999C309.541 334.999 302.348 327.79 302.348 318.899Z" fill="#2D3652"/>
<path d="M404.926 116C404.926 83.9678 430.838 58 462.801 58V116L404.926 116Z" fill="#FF743C"/>
<path d="M462.801 232C430.838 232 404.926 206.032 404.926 174L462.801 174V232Z" fill="#3699FF"/>
<path d="M404.926 174C404.926 141.967 430.838 116 462.801 116V174H404.926Z" fill="#6ED47C"/>
<path d="M433.265 173.998C433.265 157.651 446.488 144.398 462.801 144.398V173.998H433.265Z" fill="#D5E155"/>
<path d="M405.125 319.289C405.125 335.305 418.081 348.289 434.062 348.289C450.044 348.289 463 335.305 463 319.289C463 303.273 450.044 290.289 434.062 290.289H405.125V319.289Z" fill="#FFC700"/>
<path d="M405.125 305.289C405.125 313.573 411.826 320.289 420.093 320.289C428.359 320.289 435.061 313.573 435.061 305.289C435.061 297.005 428.359 290.289 420.093 290.289H405.125V305.289Z" fill="#FF743C"/>
<path d="M433.863 232C449.845 232 462.801 244.984 462.801 261C462.801 277.016 449.845 290 433.863 290C417.882 290 404.926 277.016 404.926 261C404.926 244.984 417.882 232 433.863 232Z" fill="#FF743C"/>
<path d="M434.163 245C443.036 245 450.229 252.208 450.229 261.1C450.229 269.992 443.036 277.2 434.163 277.2C425.291 277.2 418.098 269.992 418.098 261.1C418.098 252.208 425.291 245 434.163 245Z" fill="#2D3652"/>
<path d="M205.963 248.213H247.825C270.945 248.213 289.688 266.985 289.688 290.141H247.825C224.706 290.141 205.963 271.369 205.963 248.213Z" fill="#A04AE3"/>
<path d="M247.826 269.176H268.652C280.27 269.176 289.689 278.562 289.689 290.14H268.863C257.244 290.14 247.826 280.754 247.826 269.176Z" fill="#6ED47C"/>
</g>
</svg>
