<svg width="368" height="308" viewBox="0 0 368 308" fill="none" xmlns="http://www.w3.org/2000/svg">
<path fill-rule="evenodd" clip-rule="evenodd" d="M344.815 267.903C347.262 265.396 351.278 265.348 353.784 267.794L381.009 294.374C383.515 296.821 383.563 300.836 381.115 303.343C378.668 305.85 374.652 305.898 372.147 303.452L344.921 276.872C342.415 274.426 342.368 270.41 344.815 267.903Z" fill="#FFC735"/>
<path d="M172 96.7178C172 90.8731 167.26 86.1349 161.414 86.1349C155.568 86.1349 150.828 90.8731 150.828 96.7178C150.828 102.562 155.568 107.301 161.414 107.301C164.922 107.301 167.766 110.144 167.766 113.65C167.766 117.157 164.922 120 161.414 120C148.552 120 138.125 109.576 138.125 96.7178C138.125 83.8592 148.552 73.4355 161.414 73.4355C174.276 73.4355 184.703 83.8592 184.703 96.7178C184.703 100.224 181.859 103.067 178.352 103.067C174.844 103.067 172 100.224 172 96.7178Z" fill="#E53855"/>
<path fill-rule="evenodd" clip-rule="evenodd" d="M318.936 236.539C313.109 236.539 308.385 241.277 308.385 247.122C308.385 252.966 313.109 257.704 318.936 257.704C322.432 257.704 325.266 260.547 325.266 264.054C325.266 267.561 322.432 270.404 318.936 270.404C306.117 270.404 295.725 259.98 295.725 247.122C295.725 234.263 306.117 223.839 318.936 223.839C322.432 223.839 325.266 226.682 325.266 230.189C325.266 233.696 322.432 236.539 318.936 236.539Z" fill="#E53855"/>
<path fill-rule="evenodd" clip-rule="evenodd" d="M325.267 264.062C325.267 267.565 322.427 270.404 318.923 270.404C315.42 270.404 312.58 267.565 312.58 264.062C312.58 260.56 315.42 257.721 318.923 257.721C322.427 257.721 325.267 260.56 325.267 264.062Z" fill="#FD6234"/>
<path fill-rule="evenodd" clip-rule="evenodd" d="M327.441 247.031C327.441 250.533 324.6 253.372 321.097 253.372C317.594 253.372 314.754 250.533 314.754 247.031C314.754 243.528 317.594 240.689 321.097 240.689C324.6 240.689 327.441 243.528 327.441 247.031Z" fill="#FD6234"/>
<path fill-rule="evenodd" clip-rule="evenodd" d="M344.296 247.031C344.296 250.533 341.456 253.372 337.953 253.372C334.45 253.372 331.609 250.533 331.609 247.031C331.609 243.528 334.45 240.689 337.953 240.689C341.456 240.689 344.296 243.528 344.296 247.031Z" fill="#FD6234"/>
<path fill-rule="evenodd" clip-rule="evenodd" d="M223.711 191.834C217.865 191.834 213.125 196.573 213.125 202.417C213.125 208.262 217.865 213 223.711 213C229.557 213 234.297 208.262 234.297 202.417C234.297 196.573 229.557 191.834 223.711 191.834ZM155.711 42.8344C149.865 42.8344 145.125 47.5725 145.125 53.4172C145.125 59.2623 149.865 64 155.711 64C161.557 64 166.297 59.2623 166.297 53.4172C166.297 47.5725 161.557 42.8344 155.711 42.8344Z" fill="#FFC735"/>
<path d="M202.115 31.2229C196.269 31.2229 191.529 26.4848 191.529 20.6401C191.529 14.7954 196.269 10.0572 202.115 10.0572C207.962 10.0572 212.701 14.7954 212.701 20.6401C212.701 24.1468 215.545 26.9898 219.053 26.9898C222.561 26.9898 225.404 24.1468 225.404 20.6401C225.404 7.78146 214.978 -2.64225 202.115 -2.64225C189.253 -2.64225 178.826 7.78146 178.826 20.6401C178.826 33.4987 189.253 43.9224 202.115 43.9224C205.623 43.9224 208.467 41.0794 208.467 37.5726C208.467 34.0659 205.623 31.2229 202.115 31.2229Z" fill="#44AB96"/>
<path fill-rule="evenodd" clip-rule="evenodd" d="M147.577 -47.523C160.431 -47.523 170.851 -37.0978 170.851 -24.2373V18.1001C170.851 30.9606 160.431 41.3857 147.577 41.3857C134.722 41.3857 124.302 30.9606 124.302 18.1001V4.55214H110.972C98.1187 4.55214 87.6982 -5.87304 87.6982 -18.7335V-61.071C87.6982 -66.9178 82.9617 -71.6553 77.119 -71.6553H57.6532C51.8105 -71.6553 47.074 -66.9178 47.074 -61.071C47.074 -57.5654 44.232 -54.7203 40.7264 -54.7203C37.2208 -54.7203 34.3789 -57.5654 34.3789 -61.071C34.3789 -73.9331 44.799 -84.3566 57.6532 -84.3566H77.119C83.7881 -84.3566 89.8026 -81.5496 94.0457 -77.0533C98.2893 -81.5496 104.303 -84.3566 110.972 -84.3566H130.015C133.521 -84.3566 136.363 -81.5115 136.363 -78.0059C136.363 -74.5004 133.521 -71.6553 130.015 -71.6553H110.972C105.13 -71.6553 100.393 -66.9178 100.393 -61.071V-18.7335C100.393 -12.8879 105.13 -8.14911 110.972 -8.14911H124.302V-24.2373C124.302 -37.0978 134.722 -47.523 147.577 -47.523ZM136.998 18.1002C136.998 23.9457 141.735 28.6846 147.577 28.6846C153.42 28.6846 158.156 23.9457 158.156 18.1002V-24.2372C158.156 -30.0827 153.42 -34.8216 147.577 -34.8216C141.735 -34.8216 136.998 -30.0827 136.998 -24.2372V18.1002Z" fill="#8950FC"/>
<path d="M356.259 245.763C356.259 229.652 343.195 216.592 327.08 216.592C323.576 216.592 320.736 213.752 320.736 210.25C320.736 206.748 323.576 203.909 327.08 203.909C350.202 203.909 368.946 222.647 368.946 245.763C368.946 249.265 366.105 252.104 362.602 252.104C359.099 252.104 356.259 249.265 356.259 245.763Z" fill="#400101"/>
<path fill-rule="evenodd" clip-rule="evenodd" d="M206.359 181.434C206.359 162.734 191.195 147.575 172.489 147.575C168.982 147.575 166.139 144.732 166.139 141.226C166.139 137.72 168.982 134.877 172.489 134.877C198.209 134.877 219.06 155.722 219.06 181.434C219.06 184.941 216.217 187.783 212.71 187.783C209.202 187.783 206.359 184.941 206.359 181.434Z" fill="#44AB96"/>
<path fill-rule="evenodd" clip-rule="evenodd" d="M219.423 43.1978C222.927 43.1978 225.767 40.3585 225.767 36.8563C225.767 33.3541 222.927 30.5148 219.423 30.5148C215.92 30.5148 213.08 33.3541 213.08 36.8563C213.08 40.3585 215.92 43.1978 219.423 43.1978Z" fill="#FD6234"/>
<path fill-rule="evenodd" clip-rule="evenodd" d="M219.423 60.0479C222.927 60.0479 225.767 57.2086 225.767 53.7064C225.767 50.2042 222.927 47.3649 219.423 47.3649C215.92 47.3649 213.08 50.2042 213.08 53.7064C213.08 57.2086 215.92 60.0479 219.423 60.0479Z" fill="#FD6234"/>
<path fill-rule="evenodd" clip-rule="evenodd" d="M335.07 -7.62516C335.07 -1.78047 339.81 2.95768 345.656 2.95768C351.503 2.95768 356.242 -1.78047 356.242 -7.62516C356.242 -13.4699 351.503 -18.208 345.656 -18.208C339.81 -18.208 335.07 -13.4699 335.07 -7.62516ZM345.656 15.6572C332.794 15.6572 322.367 5.23353 322.367 -7.62508C322.367 -20.4837 332.794 -30.9074 345.656 -30.9074C358.519 -30.9074 368.945 -20.4837 368.945 -7.62508C368.945 5.23353 358.519 15.6572 345.656 15.6572Z" fill="#FFC735"/>
<path d="M304.605 119.292C304.605 115.788 307.453 112.948 310.965 112.948C316.819 112.948 321.564 108.213 321.564 102.373V60.0758C321.564 54.2358 316.819 49.5015 310.965 49.5015C307.453 49.5015 304.605 46.6608 304.605 43.1569C304.605 39.653 307.453 36.8123 310.965 36.8123C318.77 36.8123 325.68 40.6381 329.912 46.5123C335.383 45.0218 339.371 39.9998 339.371 33.8515V9.31903C339.371 5.81512 342.218 2.97443 345.73 2.97443C349.242 2.97443 352.09 5.81512 352.09 9.31903V33.8515C352.09 45.3272 344.717 55.1842 334.229 58.48C334.265 59.0074 334.283 59.5395 334.283 60.0758V102.373C334.283 115.221 323.843 125.637 310.965 125.637C307.453 125.637 304.605 122.796 304.605 119.292Z" fill="#400101"/>
<path fill-rule="evenodd" clip-rule="evenodd" d="M228.848 171.386C228.848 158.528 239.261 148.104 252.107 148.104H294.395C307.241 148.104 317.654 158.528 317.654 171.386C317.654 184.245 307.241 194.668 294.395 194.668H252.107C239.261 194.668 228.848 184.245 228.848 171.386ZM252.107 160.803C246.269 160.803 241.535 165.542 241.535 171.386C241.535 177.231 246.269 181.969 252.107 181.969H294.396C300.235 181.969 304.968 177.231 304.968 171.386C304.968 165.542 300.235 160.803 294.396 160.803H252.107Z" fill="#44AB96"/>
<path fill-rule="evenodd" clip-rule="evenodd" d="M317.292 119.295C317.292 115.793 314.448 112.954 310.94 112.954C305.092 112.954 300.352 108.222 300.352 102.385V60.1082C300.352 54.2711 305.092 49.5391 310.94 49.5391C314.448 49.5391 317.292 46.6998 317.292 43.1976C317.292 39.6954 314.448 36.8561 310.94 36.8561C304.265 36.8561 298.246 39.6586 293.999 44.1492C289.752 39.6586 283.734 36.8561 277.059 36.8561H257.578C244.714 36.8561 234.285 47.2663 234.285 60.1082C234.285 63.6104 237.129 66.4496 240.638 66.4496C244.146 66.4496 246.99 63.6104 246.99 60.1082C246.99 54.2711 251.731 49.5391 257.578 49.5391H277.059C282.906 49.5391 287.647 54.2711 287.647 60.1082V102.384C287.647 102.385 287.647 102.384 287.647 102.384C287.647 115.226 298.075 125.637 310.94 125.637C314.448 125.637 317.292 122.797 317.292 119.295Z" fill="#44AB96"/>
<path fill-rule="evenodd" clip-rule="evenodd" d="M310.857 36.8396C316.704 36.8396 321.443 32.1015 321.443 26.2568C321.443 20.4121 316.704 15.6739 310.857 15.6739C305.011 15.6739 300.271 20.4121 300.271 26.2568C300.271 29.7635 297.428 32.6065 293.92 32.6065C290.412 32.6065 287.568 29.7635 287.568 26.2568C287.568 13.3982 297.995 2.97445 310.857 2.97445C323.72 2.97445 334.146 13.3982 334.146 26.2568C334.146 39.1154 323.72 49.5391 310.857 49.5391C307.35 49.5391 304.506 46.6961 304.506 43.1893C304.506 39.6826 307.35 36.8396 310.857 36.8396Z" fill="#463C74"/>
<path fill-rule="evenodd" clip-rule="evenodd" d="M258.842 90.8654C252.995 90.8654 248.256 95.6035 248.256 101.448C248.256 107.293 252.995 112.031 258.842 112.031C264.688 112.031 269.428 107.293 269.428 101.448C269.428 97.9415 272.271 95.0985 275.779 95.0985C279.287 95.0985 282.131 97.9415 282.131 101.448C282.131 114.307 271.704 124.73 258.842 124.73C245.979 124.73 235.553 114.307 235.553 101.448C235.553 88.5896 245.979 78.166 258.842 78.166C262.35 78.166 265.193 81.0089 265.193 84.5157C265.193 88.0224 262.35 90.8654 258.842 90.8654Z" fill="#E53855"/>
<path fill-rule="evenodd" clip-rule="evenodd" d="M293.167 177.637C285.359 177.637 279.081 183.911 279.081 191.588C279.081 199.265 285.359 205.539 293.167 205.539C297.481 205.539 301.33 203.627 303.92 200.601C306.2 197.937 310.214 197.62 312.885 199.894C315.556 202.168 315.874 206.17 313.594 208.834C308.683 214.573 301.348 218.222 293.167 218.222C278.392 218.222 266.363 206.326 266.363 191.588C266.363 176.85 278.392 164.954 293.167 164.954C296.679 164.954 299.527 167.793 299.527 171.295C299.527 174.798 296.679 177.637 293.167 177.637Z" fill="#FD6234"/>
<path fill-rule="evenodd" clip-rule="evenodd" d="M310.767 36.8561C314.27 36.8561 317.11 39.6954 317.11 43.1976C317.11 46.6998 314.27 49.5391 310.767 49.5391C307.264 49.5391 304.424 46.6998 304.424 43.1976C304.424 39.6954 307.264 36.8561 310.767 36.8561Z" fill="#FD6234"/>
<path fill-rule="evenodd" clip-rule="evenodd" d="M310.949 112.954C314.452 112.954 317.292 115.793 317.292 119.295C317.292 122.797 314.452 125.637 310.949 125.637C307.446 125.637 304.605 122.797 304.605 119.295C304.605 115.793 307.446 112.954 310.949 112.954Z" fill="#FD6234"/>
<path fill-rule="evenodd" clip-rule="evenodd" d="M345.746 2.97427C349.249 2.97427 352.089 5.81356 352.089 9.31575C352.089 12.8179 349.249 15.6572 345.746 15.6572C342.242 15.6572 339.402 12.8179 339.402 9.31575C339.402 5.81356 342.242 2.97427 345.746 2.97427Z" fill="#FD6234"/>
<path fill-rule="evenodd" clip-rule="evenodd" d="M317.309 72.7178C317.309 78.543 322.048 83.2653 327.894 83.2653C333.741 83.2653 338.48 78.543 338.48 72.7178C338.48 69.2227 341.324 66.3893 344.832 66.3893C348.34 66.3893 351.184 69.2227 351.184 72.7178C351.184 85.5335 340.757 95.9224 327.894 95.9224C315.032 95.9224 304.605 85.5335 304.605 72.7178C304.605 69.2227 307.449 66.3893 310.957 66.3893C314.465 66.3893 317.309 69.2227 317.309 72.7178Z" fill="#FFC735"/>
<path fill-rule="evenodd" clip-rule="evenodd" d="M203.837 59.6968C203.837 67.7653 210.534 74.52 219.061 74.52C227.588 74.52 234.285 67.7653 234.285 59.6968C234.285 56.1884 237.125 53.344 240.628 53.344C244.131 53.344 246.972 56.1884 246.972 59.6968C246.972 75.0185 234.356 87.2256 219.061 87.2256C203.766 87.2256 191.15 75.0185 191.15 59.6968C191.15 56.1884 193.991 53.344 197.494 53.344C200.997 53.344 203.837 56.1884 203.837 59.6968Z" fill="#FFB017"/>
<path fill-rule="evenodd" clip-rule="evenodd" d="M282.156 101.544C282.156 117.666 295.244 130.736 311.389 130.736C324.258 130.736 334.691 141.154 334.691 154.005C334.691 166.857 324.258 177.274 311.389 177.274C307.879 177.274 305.034 174.433 305.034 170.928C305.034 167.424 307.879 164.582 311.389 164.582C317.239 164.582 321.981 159.847 321.981 154.005C321.981 148.164 317.239 143.428 311.389 143.428C288.224 143.428 269.445 124.676 269.445 101.544C269.445 98.039 272.291 95.1976 275.8 95.1976C279.31 95.1976 282.156 98.039 282.156 101.544Z" fill="#FFB017"/>
<path d="M228.847 170.027C228.847 143.41 207.263 121.832 180.638 121.832C177.135 121.832 174.295 118.993 174.295 115.49C174.295 111.988 177.135 109.149 180.638 109.149C214.27 109.149 241.534 136.405 241.534 170.027C241.534 173.529 238.694 176.369 235.191 176.369C231.688 176.369 228.847 173.529 228.847 170.027Z" fill="#8950FC"/>
<path d="M15.9192 -16.9432C15.9192 5.75073 34.3215 24.1475 57.0219 24.1475C60.5321 24.1475 63.378 26.9925 63.378 30.5017C63.378 34.011 60.5321 36.856 57.0219 36.856C27.3007 36.856 3.20703 12.7692 3.20703 -16.9432C3.20703 -20.4524 6.05273 -23.2974 9.56312 -23.2974C13.0735 -23.2974 15.9192 -20.4524 15.9192 -16.9432Z" fill="#E53855"/>
<path fill-rule="evenodd" clip-rule="evenodd" d="M306.237 -5.90338C290.122 -5.90338 277.058 7.15668 277.058 23.2674C277.058 26.7696 274.218 29.6089 270.714 29.6089C267.211 29.6089 264.371 26.7696 264.371 23.2674C264.371 0.152308 283.115 -18.5863 306.237 -18.5863C309.74 -18.5863 312.58 -15.747 312.58 -12.2449C312.58 -8.74267 309.74 -5.90338 306.237 -5.90338Z" fill="#FD6234"/>
<path fill-rule="evenodd" clip-rule="evenodd" d="M262.719 205.529C262.719 216.253 271.415 224.946 282.142 224.946C285.639 224.946 288.475 227.781 288.475 231.277C288.475 234.774 285.639 237.609 282.142 237.609C264.419 237.609 250.053 223.246 250.053 205.529C250.053 202.033 252.888 199.198 256.386 199.198C259.884 199.198 262.719 202.033 262.719 205.529Z" fill="#FFB017"/>
<path fill-rule="evenodd" clip-rule="evenodd" d="M310.949 66.3894C314.452 66.3894 317.292 69.2287 317.292 72.7308C317.292 76.233 314.452 79.0723 310.949 79.0723C307.446 79.0723 304.605 76.233 304.605 72.7308C304.605 69.2287 307.446 66.3894 310.949 66.3894Z" fill="#FD6234"/>
<path fill-rule="evenodd" clip-rule="evenodd" d="M275.789 95.0163C279.292 95.0163 282.132 97.8556 282.132 101.358C282.132 104.86 279.292 107.699 275.789 107.699C272.285 107.699 269.445 104.86 269.445 101.358C269.445 97.8556 272.285 95.0163 275.789 95.0163Z" fill="#FD6234"/>
<path fill-rule="evenodd" clip-rule="evenodd" d="M214.468 96.317C217.972 96.317 220.812 99.1563 220.812 102.659C220.812 106.161 217.972 109 214.468 109C210.965 109 208.125 106.161 208.125 102.659C208.125 99.1563 210.965 96.317 214.468 96.317Z" fill="#FD6234"/>
<path fill-rule="evenodd" clip-rule="evenodd" d="M240.628 53.344C244.132 53.344 246.972 56.1833 246.972 59.6854C246.972 63.1876 244.132 66.0269 240.628 66.0269C237.125 66.0269 234.285 63.1876 234.285 59.6854C234.285 56.1833 237.125 53.344 240.628 53.344Z" fill="#FD6234"/>
<path fill-rule="evenodd" clip-rule="evenodd" d="M362.601 241.051C359.098 241.051 356.258 243.891 356.258 247.393C356.258 250.895 359.098 253.734 362.601 253.734C366.104 253.734 368.944 250.895 368.944 247.393C368.944 243.891 366.104 241.051 362.601 241.051Z" fill="#463C74"/>
<path fill-rule="evenodd" clip-rule="evenodd" d="M270.468 61.3171C273.972 61.3171 276.812 64.1564 276.812 67.6585C276.812 71.1607 273.972 74 270.468 74C266.965 74 264.125 71.1607 264.125 67.6585C264.125 64.1564 266.965 61.3171 270.468 61.3171Z" fill="#44AB96"/>
<path fill-rule="evenodd" clip-rule="evenodd" d="M235.191 164.954C238.694 164.954 241.534 167.793 241.534 171.295C241.534 174.797 238.694 177.637 235.191 177.637C231.688 177.637 228.848 174.797 228.848 171.295C228.848 167.793 231.688 164.954 235.191 164.954Z" fill="#FD6234"/>
<path fill-rule="evenodd" clip-rule="evenodd" d="M311.31 164.591C314.813 164.591 317.654 167.431 317.654 170.933C317.654 174.435 314.813 177.274 311.31 177.274C307.807 177.274 304.967 174.435 304.967 170.933C304.967 167.431 307.807 164.591 311.31 164.591Z" fill="#FD6234"/>
<path fill-rule="evenodd" clip-rule="evenodd" d="M368.039 183.978C368.039 187.481 365.204 190.32 361.708 190.32H343.559C340.063 190.32 337.229 187.481 337.229 183.978C337.229 180.476 340.063 177.637 343.559 177.637H361.708C365.204 177.637 368.039 180.476 368.039 183.978Z" fill="#B4D51E"/>
<path fill-rule="evenodd" clip-rule="evenodd" d="M362.964 153.539C359.461 153.539 356.621 150.697 356.621 147.192V96.8343C356.621 93.3287 359.461 90.4867 362.964 90.4867C366.468 90.4867 369.308 93.3287 369.308 96.8343V147.192C369.308 150.697 366.468 153.539 362.964 153.539Z" fill="#FFC735"/>
<path fill-rule="evenodd" clip-rule="evenodd" d="M369.308 95.1976C369.308 98.6998 366.468 101.539 362.964 101.539C359.461 101.539 356.621 98.6998 356.621 95.1976C356.621 91.6954 359.461 88.8561 362.964 88.8561C366.468 88.8561 369.308 91.6954 369.308 95.1976Z" fill="#FD6234"/>
<path fill-rule="evenodd" clip-rule="evenodd" d="M244.435 18.1942C244.435 -4.22041 226.259 -22.3913 203.837 -22.3913C200.334 -22.3913 197.494 -25.2306 197.494 -28.7327C197.494 -32.2349 200.334 -35.0742 203.837 -35.0742C233.265 -35.0742 257.121 -11.2252 257.121 18.1942C257.121 21.6964 254.281 24.5356 250.778 24.5356C247.275 24.5356 244.435 21.6964 244.435 18.1942Z" fill="#B4D51E"/>
<path fill-rule="evenodd" clip-rule="evenodd" d="M56.9434 -27.4481C51.097 -27.4481 46.3574 -22.7099 46.3574 -16.8652C46.3574 -11.0206 51.097 -6.28241 56.9434 -6.28241C62.7898 -6.28241 67.5293 -11.0206 67.5293 -16.8652C67.5293 -20.372 70.3731 -23.215 73.8809 -23.215C77.3886 -23.215 80.2324 -20.372 80.2324 -16.8652C80.2324 -4.00668 69.8057 6.41699 56.9434 6.41699C44.081 6.41699 33.6543 -4.00668 33.6543 -16.8652C33.6543 -29.7238 44.081 -40.1475 56.9434 -40.1475C60.4511 -40.1475 63.2949 -37.3028 63.2949 -33.7978C63.2949 -30.2911 60.4511 -27.4481 56.9434 -27.4481Z" fill="#463C74"/>
<path fill-rule="evenodd" clip-rule="evenodd" d="M136.132 72.6585C136.132 69.1563 133.288 66.3171 129.779 66.3171C123.932 66.3171 119.192 61.5851 119.192 55.7479V13.4715C119.192 7.63434 123.932 2.90234 129.779 2.90234C133.288 2.90234 136.132 0.0630493 136.132 -3.43913C136.132 -6.94131 133.288 -9.78061 129.779 -9.78061C123.105 -9.78061 117.086 -6.9781 112.839 -2.4875C108.592 -6.9781 102.573 -9.78061 95.899 -9.78061H76.4178C63.5534 -9.78061 53.125 0.629555 53.125 13.4715C53.125 16.9736 55.9693 19.8129 59.4776 19.8129C62.9859 19.8129 65.8301 16.9736 65.8301 13.4715C65.8301 7.63434 70.5704 2.90234 76.4178 2.90234H95.899C101.746 2.90234 106.487 7.63434 106.487 13.4715V55.7475C106.487 55.7479 106.487 55.7475 106.487 55.7475C106.487 68.5894 116.915 79 129.779 79C133.288 79 136.132 76.1607 136.132 72.6585Z" fill="#44AB96"/>
<path fill-rule="evenodd" clip-rule="evenodd" d="M114.51 33.4784C107.63 33.4784 102.053 43.3924 102.053 55.6218C102.053 67.852 107.63 77.7651 114.51 77.7651C121.389 77.7651 126.967 67.852 126.967 55.6218C126.967 43.3924 121.389 33.4784 114.51 33.4784Z" fill="#FFD866"/>
</svg>
