<svg width="436" height="544" viewBox="0 0 436 544" fill="none" xmlns="http://www.w3.org/2000/svg">
<path d="M217.365 544C337.412 544 434.729 538.17 434.729 530.979C434.729 523.787 337.412 517.958 217.365 517.958C97.3174 517.958 0 523.787 0 530.979C0 538.17 97.3174 544 217.365 544Z" fill="#CED3E6"/>
<path d="M352.739 511.269C398.722 511.269 435.999 507.643 435.999 503.169C435.999 498.696 398.722 495.07 352.739 495.07C306.755 495.07 269.479 498.696 269.479 503.169C269.479 507.643 306.755 511.269 352.739 511.269Z" fill="#CED3E6"/>
<path d="M403.718 444.597H298.607C296.611 444.597 294.99 443 294.99 441.035V439.394C294.99 437.429 296.611 435.832 298.607 435.832H403.718C405.714 435.832 407.334 437.429 407.334 439.394V441.035C407.334 443 405.714 444.597 403.718 444.597Z" fill="#39393B"/>
<path d="M299.929 338.743H402.624C404.335 338.743 405.715 340.103 405.715 341.788V354.218C405.715 355.903 404.335 357.262 402.624 357.262H299.929C298.219 357.262 296.838 355.903 296.838 354.218V341.788C296.838 340.103 298.219 338.743 299.929 338.743Z" fill="#585859"/>
<path d="M324.18 259.967C324.18 259.967 280.884 251.542 268.803 221.79C256.723 192.039 300.904 169.721 324.18 185.698C349.092 202.784 324.18 259.967 324.18 259.967Z" fill="#21B573"/>
<path d="M349.932 338.138C349.557 338.138 349.212 337.857 349.152 337.473C345.01 309.834 328.277 270.076 314.995 241.595C300.573 210.706 286.977 186.053 286.842 185.801C286.632 185.432 286.782 184.959 287.157 184.752C287.532 184.545 288.012 184.693 288.222 185.062C288.357 185.314 301.984 210.011 316.436 240.945C329.777 269.529 346.555 309.435 350.727 337.251C350.787 337.679 350.502 338.064 350.067 338.123C350.007 338.123 349.962 338.138 349.932 338.138Z" fill="#39393B"/>
<path d="M322.559 257.085C322.274 257.085 322.004 256.937 321.869 256.686C303.035 222.145 272.45 197.079 272.15 196.828C271.82 196.561 271.775 196.074 272.045 195.749C272.315 195.423 272.81 195.379 273.14 195.645C273.456 195.896 304.265 221.14 323.25 255.962C323.46 256.331 323.31 256.804 322.934 257.011C322.799 257.055 322.679 257.085 322.559 257.085Z" fill="#39393B"/>
<path d="M323.415 259.568C323.19 259.568 322.98 259.479 322.815 259.302C309.084 243.384 295.007 233.481 285.627 227.983C275.452 222.027 268.444 219.795 268.384 219.78C267.979 219.647 267.739 219.219 267.874 218.805C268.009 218.406 268.444 218.169 268.864 218.302C269.149 218.391 276.083 220.578 286.393 226.623C295.892 232.181 310.134 242.201 324.016 258.297C324.301 258.622 324.256 259.11 323.926 259.39C323.776 259.509 323.581 259.568 323.415 259.568Z" fill="#39393B"/>
<path d="M319.603 250.508C319.273 250.508 318.973 250.301 318.868 249.991C308.303 219.47 312.19 182.388 312.235 182.018C312.28 181.589 312.67 181.294 313.09 181.338C313.525 181.382 313.826 181.767 313.781 182.181C313.736 182.55 309.894 219.308 320.339 249.488C320.474 249.887 320.264 250.331 319.844 250.464C319.768 250.493 319.678 250.508 319.603 250.508Z" fill="#39393B"/>
<path d="M322.259 256.553C321.883 256.553 321.553 256.287 321.493 255.902C318.267 236.585 320.743 220.83 323.399 211.016C326.281 200.36 329.882 194.359 330.032 194.108C330.258 193.738 330.738 193.62 331.113 193.842C331.488 194.063 331.608 194.536 331.383 194.906C331.353 194.965 327.721 201.01 324.9 211.489C322.304 221.14 319.873 236.659 323.039 255.666C323.114 256.08 322.814 256.479 322.394 256.553C322.334 256.538 322.289 256.553 322.259 256.553Z" fill="#39393B"/>
<path d="M369.846 267.741C369.846 267.741 413.577 261.844 427.428 232.86C441.28 203.862 398.509 179.017 374.318 193.605C348.415 209.212 369.846 267.741 369.846 267.741Z" fill="#21B573"/>
<path d="M353.263 335.61C352.828 335.61 352.468 335.255 352.483 334.827C352.648 320.594 355.799 304.38 361.847 286.644C366.68 272.47 373.343 257.291 381.687 241.536C395.869 214.711 410.156 195.216 410.306 195.024C410.561 194.684 411.056 194.595 411.401 194.847C411.746 195.098 411.836 195.586 411.581 195.925C411.446 196.118 397.219 215.538 383.083 242.26C370.056 266.898 354.449 302.947 354.074 334.841C354.044 335.27 353.698 335.61 353.263 335.61Z" fill="#39393B"/>
<path d="M371.692 264.963C371.557 264.963 371.407 264.933 371.287 264.844C370.912 264.623 370.807 264.15 371.032 263.78C392.072 230.126 424.353 206.715 424.683 206.479C425.028 206.227 425.523 206.301 425.778 206.641C426.033 206.981 425.958 207.469 425.613 207.72C425.298 207.957 393.258 231.191 372.383 264.578C372.218 264.83 371.962 264.963 371.692 264.963Z" fill="#39393B"/>
<path d="M370.687 267.386C370.492 267.386 370.297 267.312 370.147 267.179C369.832 266.884 369.817 266.396 370.117 266.086C384.959 250.818 399.771 241.654 409.586 236.659C420.241 231.235 427.279 229.446 427.579 229.372C427.999 229.269 428.42 229.52 428.525 229.934C428.63 230.348 428.375 230.762 427.954 230.865C427.879 230.88 420.751 232.698 410.246 238.048C400.551 242.985 385.919 252.059 371.242 267.15C371.107 267.298 370.897 267.386 370.687 267.386Z" fill="#39393B"/>
<path d="M375.04 258.563C374.935 258.563 374.845 258.548 374.74 258.504C374.334 258.341 374.154 257.898 374.304 257.499C386.55 227.968 384.915 191.063 384.9 190.694C384.885 190.265 385.215 189.91 385.65 189.881C386.07 189.851 386.445 190.191 386.475 190.62C386.49 190.989 388.141 228.234 375.775 258.09C375.64 258.385 375.355 258.563 375.04 258.563Z" fill="#39393B"/>
<path d="M372.023 264.445C371.963 264.445 371.903 264.445 371.843 264.43C371.422 264.341 371.152 263.928 371.257 263.514C375.579 244.714 374.079 229.091 372.068 219.307C369.877 208.695 366.635 202.443 366.605 202.369C366.41 201.985 366.56 201.527 366.935 201.335C367.325 201.143 367.791 201.29 367.986 201.66C368.121 201.911 371.347 208.119 373.583 218.938C375.639 228.899 377.17 244.773 372.788 263.854C372.713 264.194 372.383 264.445 372.023 264.445Z" fill="#39393B"/>
<path d="M353.008 211.637C353.008 211.637 315.955 188.018 315.91 155.976C315.865 123.933 365.299 119.321 380.921 142.644C397.655 167.607 353.008 211.637 353.008 211.637Z" fill="#21B573"/>
<path d="M347.83 293.68C347.77 293.68 347.71 293.68 347.65 293.665C347.23 293.562 346.975 293.148 347.065 292.734C353.608 265.554 353.023 222.515 351.387 191.211C349.616 157.262 346.24 129.387 346.21 129.121C346.165 128.692 346.465 128.308 346.9 128.263C347.32 128.219 347.725 128.515 347.77 128.943C347.8 129.224 351.177 157.143 352.963 191.137C354.614 222.544 355.184 265.731 348.611 293.089C348.506 293.443 348.191 293.68 347.83 293.68Z" fill="#39393B"/>
<path d="M352.873 208.429C352.483 208.429 352.138 208.133 352.092 207.749C347.59 168.789 328.606 134.352 328.411 134.012C328.201 133.643 328.336 133.17 328.726 132.963C329.101 132.756 329.582 132.889 329.792 133.273C329.987 133.613 349.121 168.317 353.653 207.587C353.698 208.015 353.398 208.4 352.963 208.444C352.933 208.429 352.903 208.429 352.873 208.429Z" fill="#39393B"/>
<path d="M352.739 211.03C352.408 211.03 352.108 210.823 352.003 210.498C345.235 190.693 335.885 176.372 329.237 167.844C322.034 158.591 316.361 153.98 316.301 153.936C315.971 153.67 315.911 153.182 316.196 152.857C316.466 152.532 316.961 152.472 317.292 152.753C317.532 152.945 323.129 157.498 330.438 166.868C337.176 175.5 346.631 189.984 353.474 210.011C353.609 210.41 353.399 210.853 352.979 210.986C352.904 211.016 352.829 211.03 352.739 211.03Z" fill="#39393B"/>
<path d="M352.603 201.231C352.588 201.231 352.573 201.231 352.558 201.231C352.123 201.217 351.792 200.847 351.822 200.418C353.488 168.228 371.047 135.195 371.212 134.855C371.422 134.471 371.887 134.338 372.277 134.53C372.667 134.722 372.803 135.195 372.608 135.579C372.427 135.904 355.034 168.642 353.398 200.492C353.368 200.906 353.023 201.231 352.603 201.231Z" fill="#39393B"/>
<path d="M352.798 207.809C352.738 207.809 352.693 207.809 352.633 207.794C352.213 207.705 351.943 207.291 352.033 206.877C356.295 187.752 364.549 173.918 370.732 165.671C377.44 156.715 383.053 152.355 383.293 152.177C383.638 151.911 384.133 151.97 384.389 152.31C384.659 152.65 384.599 153.138 384.253 153.389C384.193 153.433 378.536 157.838 371.948 166.632C365.87 174.746 357.751 188.373 353.564 207.203C353.489 207.572 353.158 207.809 352.798 207.809Z" fill="#39393B"/>
<path d="M398.286 289.541L396.995 292.911L396.185 295.054L393.844 301.173L393.018 303.316L390.617 309.612L389.807 311.741L379.482 338.729H323.085L312.76 311.741L311.949 309.612L309.548 303.316L308.723 301.173L306.382 295.054L305.571 292.911L304.281 289.541C303.395 287.221 305.136 284.752 307.642 284.752H394.939C397.43 284.752 399.171 287.221 398.286 289.541Z" fill="#0875F7"/>
<path d="M396.996 292.911L396.185 295.054H306.382L305.557 292.911H396.996Z" fill="#084FC7"/>
<path d="M393.829 301.173L393.018 303.316H309.533L308.723 301.173H393.829Z" fill="#084FC7"/>
<path d="M390.602 309.612L389.792 311.741H312.76L311.949 309.612H390.602Z" fill="#084FC7"/>
<path d="M336.17 357.248L333.049 367.18L289.513 505.371H281.004L308.602 370.003L311.213 357.248H336.17Z" fill="#39393B"/>
<path d="M421.801 505.371H413.292L368.481 363.086L366.635 357.248H391.592L392.222 360.351L421.801 505.371Z" fill="#39393B"/>
<path d="M403.718 425.545H298.607C296.611 425.545 294.99 423.949 294.99 421.984V420.343C294.99 418.377 296.611 416.781 298.607 416.781H403.703C405.699 416.781 407.319 418.377 407.319 420.343V421.984C407.334 423.949 405.714 425.545 403.718 425.545Z" fill="#585859"/>
<path d="M271.325 93.3043C293.802 93.3043 312.024 75.5835 312.024 53.7238C312.024 31.8641 293.802 14.1433 271.325 14.1433C248.847 14.1433 230.625 31.8641 230.625 53.7238C230.625 75.5835 248.847 93.3043 271.325 93.3043Z" fill="#CED3E6"/>
<path d="M271.325 88.161C293.802 88.161 312.024 70.4402 312.024 48.5805C312.024 26.7208 293.802 9 271.325 9C248.847 9 230.625 26.7208 230.625 48.5805C230.625 70.4402 248.847 88.161 271.325 88.161Z" fill="#0875F7"/>
<path d="M271.324 80.7563C289.591 80.7563 304.4 66.3508 304.4 48.5806C304.4 30.8104 289.591 16.4048 271.324 16.4048C253.057 16.4048 238.248 30.8104 238.248 48.5806C238.248 66.3508 253.057 80.7563 271.324 80.7563Z" fill="white"/>
<path d="M304.401 48.5803C304.401 49.4376 304.371 50.28 304.296 51.1225C302.96 34.569 288.673 21.4888 271.31 21.4888C253.946 21.4888 239.674 34.569 238.324 51.1225C238.264 50.28 238.219 49.4376 238.219 48.5803C238.219 30.8297 253.061 16.4045 271.295 16.4045C289.558 16.4045 304.401 30.8297 304.401 48.5803Z" fill="#CED3E6"/>
<path d="M271.325 51.9206C271.07 51.9206 270.815 51.8024 270.664 51.5955L254.442 30.342C254.172 29.9873 254.247 29.4848 254.607 29.2187C254.967 28.9527 255.492 29.0266 255.762 29.3813L271.595 50.1175L289.589 42.4319C290.009 42.2546 290.489 42.4319 290.684 42.8458C290.864 43.2596 290.684 43.7326 290.264 43.9099L271.67 51.8467C271.55 51.9058 271.43 51.9206 271.325 51.9206Z" fill="#39393B"/>
<path d="M371.052 281.199V287.259C371.052 290.747 368.921 293.57 366.28 293.57H33.9149C31.2736 293.57 29.1426 290.747 29.1426 287.259V281.199C29.1426 277.711 31.2736 274.888 33.9149 274.888H366.265C368.906 274.888 371.052 277.711 371.052 281.199Z" fill="#21B573"/>
<path d="M371.052 283.12H29.1426V285.899H371.052V283.12Z" fill="#217C58"/>
<path d="M361.059 309.133H48.6534C47.2577 309.133 46.1172 308.01 46.1172 306.635V293.481H363.595V306.635C363.595 308.01 362.454 309.133 361.059 309.133Z" fill="#217C58"/>
<path d="M347.026 386.343H67.637V397.073H347.026V386.343Z" fill="#217C58"/>
<path d="M47.4972 530.003L101.583 309.133H82.5841L28.498 530.003H47.4972Z" fill="#21B573"/>
<path d="M366.806 530.003L312.705 309.133H331.704L385.79 530.003H366.806Z" fill="#21B573"/>
<path d="M59.4752 224.127L53.6155 225.011L60.3886 268.563L66.2483 267.679L59.4752 224.127Z" fill="#FAAF3A"/>
<path d="M59.4878 224.104L53.635 224.991L54.9256 220.586L55.586 218.295L56.9216 220.276L59.4878 224.104Z" fill="#EA9B7A"/>
<path d="M65.7503 264.509L59.8906 265.393L60.3837 268.563L66.2434 267.679L65.7503 264.509Z" fill="#39393B"/>
<path d="M66.2707 270.232L61.1832 271.001C60.9731 271.03 60.763 270.883 60.733 270.676L60.4028 268.533L66.2707 267.646L66.6008 269.789C66.6308 270.011 66.4808 270.203 66.2707 270.232Z" fill="#DF615C"/>
<path d="M56.922 220.276L54.926 220.586L55.5863 218.295L56.922 220.276Z" fill="#39393B"/>
<path d="M65.4188 262.233L59.5591 263.117L59.9113 265.382L65.7709 264.498L65.4188 262.233Z" fill="#C77E2E"/>
<path d="M55.4212 226.912L60.4336 259.162C60.4787 259.413 60.7038 259.576 60.9439 259.532C61.184 259.487 61.3641 259.266 61.3191 259.029L56.3067 226.779C56.2616 226.543 56.0365 226.366 55.7964 226.41C55.5563 226.439 55.3762 226.676 55.4212 226.912Z" fill="#C77E2E"/>
<path d="M57.7162 226.572L62.7286 258.822C62.7736 259.058 62.9987 259.236 63.2388 259.191C63.4939 259.147 63.659 258.925 63.614 258.689L58.6016 226.439C58.5566 226.203 58.3315 226.025 58.0913 226.07C57.8512 226.099 57.6711 226.321 57.7162 226.572Z" fill="#C77E2E"/>
<path d="M70.1002 224.303L64.1724 224.323L64.3186 268.381L70.2465 268.362L70.1002 224.303Z" fill="#21B573"/>
<path d="M70.098 224.311L64.1702 224.326L66.1061 220.158L67.1116 217.985L68.1321 220.143L70.098 224.311Z" fill="#EA9B7A"/>
<path d="M70.2289 265.17L64.301 265.189L64.3117 268.396L70.2395 268.377L70.2289 265.17Z" fill="#39393B"/>
<path d="M69.858 270.912L64.7105 270.927C64.4854 270.927 64.3203 270.75 64.3203 270.543V268.385L70.2482 268.37V270.528C70.2482 270.735 70.0831 270.912 69.858 270.912Z" fill="#DF615C"/>
<path d="M68.1317 220.143L66.1057 220.158L67.1112 217.985L68.1317 220.143Z" fill="#39393B"/>
<path d="M70.215 262.864L64.2871 262.883L64.2947 265.174L70.2226 265.155L70.215 262.864Z" fill="#217C58"/>
<path d="M65.6409 226.499L65.7459 259.118C65.7459 259.369 65.956 259.561 66.1961 259.561C66.4513 259.561 66.6464 259.354 66.6464 259.118L66.5413 226.499C66.5413 226.247 66.3312 226.055 66.0911 226.055C65.851 226.04 65.6409 226.247 65.6409 226.499Z" fill="#217C58"/>
<path d="M67.967 226.484L68.0721 259.103C68.0721 259.354 68.2822 259.546 68.5223 259.546C68.7774 259.546 68.9725 259.339 68.9725 259.103L68.8675 226.484C68.8675 226.232 68.6574 226.04 68.4173 226.04C68.1771 226.04 67.967 226.232 67.967 226.484Z" fill="#217C58"/>
<path d="M74.4738 224.085L68.1838 267.708L74.053 268.529L80.343 224.906L74.4738 224.085Z" fill="#0875F7"/>
<path d="M80.3331 224.932L74.4653 224.104L76.9865 220.247L78.3072 218.251L78.9975 220.528L80.3331 224.932Z" fill="#EA9B7A"/>
<path d="M74.5237 265.393L68.6545 264.572L68.1967 267.747L74.0658 268.568L74.5237 265.393Z" fill="#39393B"/>
<path d="M73.2947 271.016L68.2073 270.306C67.9972 270.277 67.8471 270.085 67.8771 269.863L68.1923 267.72L74.0601 268.548L73.7449 270.691C73.6999 270.898 73.5048 271.045 73.2947 271.016Z" fill="#DF615C"/>
<path d="M78.9973 220.528L76.9863 220.247L78.307 218.251L78.9973 220.528Z" fill="#39393B"/>
<path d="M68.974 262.279L68.6467 264.547L74.5159 265.368L74.8432 263.1L68.974 262.279Z" fill="#084FC7"/>
<path d="M75.6052 226.455L70.953 258.749C70.923 259 71.088 259.222 71.3432 259.251C71.5983 259.281 71.8234 259.118 71.8534 258.867L76.5057 226.573C76.5357 226.322 76.3706 226.1 76.1155 226.07C75.8753 226.041 75.6502 226.218 75.6052 226.455Z" fill="#084FC7"/>
<path d="M77.9177 226.78L73.2655 259.074C73.2355 259.325 73.4005 259.547 73.6557 259.576C73.9108 259.606 74.1359 259.443 74.1659 259.192L78.8181 226.898C78.8482 226.647 78.6831 226.425 78.428 226.396C78.1728 226.366 77.9477 226.529 77.9177 226.78Z" fill="#084FC7"/>
<path d="M82.2682 241.736L81.9531 244.101L81.6679 246.244L81.2477 249.496L80.9626 251.624L80.5424 254.905L80.2573 257.004L79.822 260.315L79.5519 262.384L79.1167 265.724L78.8466 267.764L78.4114 271.134L78.1412 273.144L77.9161 274.888H54.5949L54.3698 273.144L54.0997 271.134L53.6645 267.764L53.3943 265.724L52.9591 262.384L52.689 260.315L52.2538 257.004L51.9836 254.905L51.5484 251.624L51.2783 249.496L50.8431 246.244L50.558 244.101L50.2578 241.736H82.2682Z" fill="#DF615C"/>
<path d="M81.9537 244.101L81.6686 246.244H50.8437L50.5586 244.101H81.9537Z" fill="#B11722"/>
<path d="M81.2487 249.496L80.9636 251.624H51.5494L51.2793 249.496H81.2487Z" fill="#B11722"/>
<path d="M80.5431 254.906L80.258 257.004H52.2545L51.9844 254.906H80.5431Z" fill="#B11722"/>
<path d="M79.8225 260.315L79.5524 262.384H52.9596L52.6895 260.315H79.8225Z" fill="#B11722"/>
<path d="M79.1169 265.724L78.8468 267.764H53.6647L53.3945 265.724H79.1169Z" fill="#B11722"/>
<path d="M78.4113 271.134L78.1412 273.144H54.3697L54.0996 271.134H78.4113Z" fill="#B11722"/>
<path d="M369.117 157.758L349.233 240.584L348.707 242.757L347.372 248.329C346.786 250.753 344.61 252.452 342.089 252.452H208.12C204.608 252.452 202.027 249.23 202.837 245.875L224.583 155.289C225.168 152.88 227.344 151.181 229.865 151.181H363.82C367.331 151.181 369.913 154.403 369.117 157.758Z" fill="#39393B"/>
<path d="M349.218 240.569L348.707 242.756H209.605V240.569H349.218Z" fill="#585859"/>
<path d="M262.1 171.665C260.99 177.533 255.257 182.292 249.299 182.292C243.341 182.292 239.409 177.533 240.52 171.665C241.63 165.798 247.363 161.039 253.321 161.039C259.294 161.039 263.211 165.798 262.1 171.665Z" fill="#FAAF3A"/>
<path d="M249.913 169.641C249.688 170.808 249.088 171.769 248.578 171.769C248.053 171.769 247.812 170.823 248.038 169.641C248.263 168.473 248.863 167.512 249.373 167.512C249.898 167.512 250.139 168.458 249.913 169.641Z" fill="#39393B"/>
<path d="M255.54 169.641C255.315 170.808 254.715 171.769 254.205 171.769C253.694 171.769 253.439 170.823 253.664 169.641C253.889 168.473 254.49 167.512 255 167.512C255.525 167.512 255.765 168.458 255.54 169.641Z" fill="#39393B"/>
<path d="M250.425 176.853C245.788 176.853 245.593 172.286 245.593 172.242C245.578 171.99 245.788 171.739 246.058 171.695C246.328 171.636 246.538 171.798 246.553 172.049C246.553 172.212 246.733 175.937 250.62 175.937C254.492 175.937 256.083 172.212 256.158 172.049C256.263 171.798 256.548 171.65 256.788 171.695C257.028 171.754 257.148 171.99 257.043 172.242C256.998 172.271 255.062 176.853 250.425 176.853Z" fill="#39393B"/>
<path d="M324.035 221.296C324.155 226.794 333.61 233.682 333.61 233.682C333.61 233.682 344.595 226.794 345.931 221.296C347.371 215.34 340.468 213.507 335.351 218C331.224 213.507 323.9 215.34 324.035 221.296Z" fill="#DF615C"/>
<path d="M304.016 205.349C303.37 211.054 298.163 215.665 292.385 215.665C286.607 215.665 282.42 211.039 283.066 205.349C283.711 199.644 288.918 195.032 294.696 195.032C300.489 195.032 304.661 199.658 304.016 205.349Z" fill="#585859"/>
<path d="M235.178 151.181L212.022 252.452H208.12C204.608 252.452 202.027 249.23 202.837 245.875L224.583 155.289C225.168 152.88 227.344 151.166 229.865 151.166H235.178V151.181Z" fill="#585859"/>
<path d="M273.971 252.452L269.904 274.962H283.336L287.403 252.452H273.971Z" fill="white"/>
<path d="M249.825 271.09L252.571 267.291C253.547 265.932 255.137 265.134 256.833 265.134H293.631C295.582 265.134 297.368 266.198 298.268 267.897L300.114 271.385C300.984 273.011 299.784 274.977 297.908 274.977H251.851C249.825 274.962 248.654 272.701 249.825 271.09Z" fill="white"/>
<path d="M173.152 274.947H283.696L284.896 270.838C285.646 268.252 283.681 265.68 280.949 265.68H178.945C177.114 265.68 175.508 266.877 174.998 268.607L173.152 274.947Z" fill="white"/>
<path d="M318.092 124.133L269.198 124.104C267.307 124.104 265.762 122.582 265.762 120.719L265.777 91.1299C265.777 89.2677 267.322 87.7454 269.213 87.7454L318.107 87.7749C319.998 87.7749 321.544 89.2972 321.544 91.1595L321.529 120.749C321.529 122.626 319.998 124.133 318.092 124.133Z" fill="#DF615C"/>
<path d="M315.179 118.68L310.722 135.263L302.934 119.67L315.179 118.68Z" fill="#DF615C"/>
<path d="M306.011 103.264C305.02 109.472 293.24 117.246 293.24 117.246C293.24 117.246 281.909 109.457 281.264 103.235C280.559 96.4951 288.662 94.4407 293.75 99.525C299.107 94.4555 307.091 96.5247 306.011 103.264Z" fill="white"/>
</svg>
