<svg width="751" height="637" viewBox="0 0 751 637" fill="none" xmlns="http://www.w3.org/2000/svg">
<path d="M440.929 274.931C409.729 248.884 441.326 189.257 412.424 160.69C395.692 144.149 366.3 147.054 349.362 130.707C331.368 113.351 337.115 80.9579 355.565 64.1044C374.016 47.251 400.62 42.7663 425.62 42.4918C450.62 42.2173 475.903 45.3634 500.464 40.6803C524.763 36.0351 553.425 25.0008 571.482 41.9007C590.034 59.2608 580.287 91.8149 593.657 113.419C600.469 124.428 612.335 131.041 622.407 139.178C632.479 147.316 641.647 159.288 639.345 172.028C637.137 184.274 625.059 192.327 613.095 195.714C601.132 199.101 588.382 199.287 576.63 203.345C550.287 212.441 534.442 238.424 514.974 258.356C495.506 278.288 462.318 292.789 440.929 274.931Z" fill="#5B6E40"/>
<path d="M12.015 304.328C16.8587 272.589 48.9238 252.641 79.4432 242.675C109.963 232.709 143.531 227.582 168.05 206.852C185.757 191.882 196.508 170.535 209.731 151.486C222.953 132.437 241.04 114.24 264.068 111.542C313.709 105.731 346.838 172.073 396.796 173.28C424.667 173.956 448.037 154.096 472.159 140.148C496.281 126.2 531.171 119.485 548.785 141.073C566.606 162.917 554.093 199.348 572.341 220.847C598.316 251.429 653.092 220.298 686.999 241.75C701.484 250.913 709.165 269.667 705.267 286.36C701.369 303.053 686.175 316.465 669.131 318.268C654.351 319.83 635.073 315.409 627.957 328.47C621.277 340.717 633.701 354.53 645.352 362.253C657.003 369.977 671.006 380.547 668.177 394.229C665.386 407.717 648.046 412.168 634.393 410.491C620.74 408.815 606.361 403.929 593.667 409.275C568.62 419.832 570.157 460.414 546.124 473.112C520.554 486.625 493.561 458.332 465.702 450.545C438.603 442.978 409.959 455.925 387.129 472.356C364.3 488.787 343.764 509.222 317.775 520.002C291.787 530.783 257.193 528.52 241.145 505.421C219.777 474.704 242.324 427.002 219.367 397.451C198.417 370.505 157.108 378 123.113 381.184C97.1967 383.625 69.8825 381.628 47.2769 368.723C24.6713 355.818 8.08759 330.046 12.015 304.328Z" fill="#FFD866"/>
<path d="M176.598 546.172C218.958 555.492 255.225 594.6 297.974 587.26C321.087 583.295 339.604 566.192 354.883 548.41C364.258 537.494 373.143 525.737 377.662 512.093C382.181 498.449 381.741 482.462 373.439 470.709C359.081 450.338 327.81 449.367 311.273 430.723C294.558 411.876 296.758 379.251 275.753 365.349C262.265 356.422 243.878 359.222 229.541 366.709C215.204 374.196 203.409 385.712 189.98 394.715C172.48 406.471 152.48 413.848 133.544 423.122C114.608 432.395 96.0105 444.236 84.6887 462.006C73.3669 479.776 71.1413 504.733 84.1861 521.299C104.507 547.05 144.554 539.12 176.598 546.172Z" fill="#5B6E40"/>
<path d="M241.706 179.194C258.027 173.873 276.224 185.156 283.8 200.561C291.376 215.966 290.62 234.108 287.918 251.058C284.341 273.579 276.63 297.138 258.446 310.892C245.633 320.605 229.214 324.16 215.439 332.429C205.603 338.341 197.339 346.487 188.158 353.366C178.978 360.245 168.251 366.034 156.782 365.92C145.312 365.806 133.31 358.205 131.511 346.875C129.045 331.343 145.447 317.889 144.239 302.21C142.719 282.248 114.518 272.392 113.243 252.414C112.504 240.848 121.862 230.611 132.613 226.283C143.365 221.954 155.312 222.14 166.9 221.946C178.488 221.752 190.595 220.949 200.561 215.037C216.372 205.667 224.227 184.89 241.706 179.194Z" fill="#5B6E40"/>
<path d="M402.463 94.1657L404.748 94.208C404.22 123.097 390.812 151.584 368.891 170.405C346.969 189.227 316.783 198.166 288.143 194.319C270.508 191.95 253.802 185.029 237.645 178.31C225.031 173.074 211.99 167.665 198.603 164.468C174.043 158.607 150.005 160.857 130.913 170.802C109.287 182.082 94.9547 203.589 94.3973 225.59C93.7976 249.271 110.939 271.784 132.611 275.778L132.189 278.025C109.456 273.836 91.4792 250.285 92.1042 225.531C92.6827 202.727 107.497 180.435 129.849 168.775C149.427 158.564 174.03 156.242 199.106 162.23C212.666 165.469 225.795 170.916 238.489 176.165C254.511 182.816 271.078 189.678 288.418 192.018C316.424 195.78 345.935 187.039 367.387 168.636C388.84 150.233 401.957 122.412 402.463 94.1657Z" fill="#400101"/>
<path d="M288.632 313.737C295.455 313.689 302.25 314.627 308.805 316.524C328.024 322.238 346.221 341.017 343.404 362.553C341.554 376.687 331.63 387.511 322.027 397.975C318.425 401.898 314.705 405.956 311.47 410.111C307.133 415.715 303.446 421.935 299.848 427.978C296.47 433.679 292.96 439.574 288.902 444.984C282.99 452.864 270.574 466.144 253.851 466.52C237.91 466.845 225.663 455.853 213.826 445.199C207.069 439.118 200.08 432.826 192.407 428.582C180.013 421.728 165.431 420.136 151.33 418.587C144.856 417.877 138.159 417.142 131.71 415.914C110.697 411.906 87.88 397.84 87.4366 376.426C87.2339 366.671 91.7314 357.579 100.439 350.126C108.07 343.597 118.454 338.935 128.927 337.343C134.272 336.572 139.668 336.206 145.068 336.249C150.781 336.249 156.592 336.566 162.217 336.87C167.842 337.174 173.619 337.491 179.282 337.491C183.032 337.491 186.406 337.356 189.599 337.069C205.089 335.721 220.194 330.578 234.785 325.608C239.155 324.117 243.678 322.58 248.142 321.165C264.177 316.102 277.04 313.737 288.632 313.737ZM253.087 464.253H253.801C269.578 463.902 281.432 451.183 287.095 443.632C291.081 438.32 294.548 432.48 297.906 426.83C301.52 420.74 305.262 414.444 309.688 408.73C312.96 404.508 316.715 400.407 320.346 396.45C329.709 386.248 339.388 375.695 341.14 362.279C343.801 341.946 326.457 324.168 308.155 318.724C301.811 316.89 295.235 315.983 288.632 316.03C277.28 316.03 264.637 318.361 248.843 323.365C244.4 324.776 239.89 326.321 235.532 327.791C220.794 332.808 205.549 337.993 189.789 339.366C186.533 339.649 183.091 339.788 179.274 339.788C173.543 339.788 167.715 339.471 162.086 339.167C156.457 338.863 150.714 338.551 145.063 338.551C139.779 338.508 134.499 338.865 129.269 339.619C109.518 342.626 89.3243 357.203 89.717 376.396C90.1393 396.539 111.997 409.85 132.133 413.688C138.492 414.9 145.144 415.631 151.558 416.336C165.883 417.907 180.697 419.528 193.492 426.606C201.394 430.976 208.48 437.353 215.334 443.523C227.209 454.177 238.391 464.253 253.087 464.253Z" fill="#400101"/>
<path d="M464.54 368.237C476.82 368.237 488.539 371.125 498.534 376.986C520.671 389.976 532.318 415.047 541.579 440.207C542.125 441.688 542.67 443.173 543.214 444.662C551.533 467.423 560.16 490.953 578.193 506.632C589.29 516.277 605.747 521.294 620.127 519.415C627.635 518.435 638.015 515.15 644.827 505.087L646.719 506.354C640.946 514.875 631.854 520.171 620.422 521.666C605.426 523.629 588.26 518.397 576.693 508.343C558.214 492.296 549.493 468.466 541.056 445.422C540.509 443.933 539.965 442.449 539.421 440.971C530.296 416.212 518.885 391.564 497.365 378.933C474.713 365.644 442.838 368.203 416.161 385.457C391.089 401.669 373.589 427.107 359.151 449.679C357.135 452.829 355.129 455.992 353.133 459.167C339.738 480.366 325.887 502.287 307.331 519.66C283.201 542.248 253.323 553.02 227.398 548.46C211.541 545.677 196.507 535.791 187.174 522.004C179.358 510.462 176.461 497.397 179.011 485.21L181.25 485.678C178.826 497.253 181.6 509.698 189.066 520.728C198.057 534.005 212.538 543.532 227.795 546.213C253.015 550.668 282.162 540.115 305.756 518.004C324.1 500.83 337.85 479.036 351.186 457.96C353.191 454.787 355.2 451.621 357.213 448.462C371.778 425.689 389.451 400.018 414.907 383.553C430.608 373.422 448.07 368.237 464.54 368.237Z" fill="#400101"/>
<path d="M276.872 35.38C292.15 35.38 305.411 37.6857 317.412 42.428C342.797 52.4657 360.702 74.944 361.965 98.3893C363.105 119.55 350.301 141.112 330.837 150.833C322.657 154.844 313.66 156.91 304.549 156.868C292.182 156.861 280.082 153.273 269.71 146.538C264.642 143.207 259.971 139.123 255.449 135.17C247.539 128.258 240.069 121.729 230.567 118.701C226.492 117.401 222.07 116.797 217.797 116.214C211.065 115.293 204.106 114.343 198.172 110.665C191.838 106.738 187.615 99.994 186.318 91.6623C184.629 80.9024 187.902 69.1586 194.84 61.017C207.404 46.2749 227.628 41.216 243.827 38.4585C256.006 36.385 266.813 35.38 276.872 35.38ZM304.536 154.579C313.293 154.621 321.94 152.638 329.803 148.785C348.477 139.461 360.761 118.803 359.667 98.5118C358.265 72.4567 337.007 52.6346 316.559 44.552C304.841 39.9069 291.859 37.6646 276.863 37.6646C266.935 37.6646 256.255 38.6611 244.203 40.7135C228.371 43.4076 208.645 48.3146 196.559 62.5034C190.136 70.0412 186.994 81.3458 188.536 91.316C189.731 98.9636 193.565 105.142 199.334 108.71C204.853 112.131 211.272 113.009 218.067 113.938C222.438 114.533 226.96 115.154 231.221 116.514C241.175 119.689 249.177 126.682 256.914 133.448C261.378 137.349 265.993 141.382 270.926 144.63C280.932 151.124 292.607 154.58 304.536 154.579V154.579Z" fill="#400101"/>
<path d="M616.234 387.9C620.359 387.902 624.463 388.485 628.426 389.632C633.113 391.004 637.716 392.913 642.167 394.762C649.769 397.917 657.645 401.181 665.858 401.663C666.597 401.705 667.357 401.726 668.118 401.726C674.815 401.726 681.576 400.037 688.109 398.394C691.395 397.549 694.794 396.705 698.168 396.08C701.521 395.446 704.925 395.125 708.337 395.121C717.801 395.121 725.36 397.972 730.187 403.369C734.093 407.731 735.922 413.503 735.47 420.002C734.895 428.334 730.525 436.894 724.068 442.384C713.244 451.556 699.017 454.246 684.165 456.395C674.173 457.843 663.472 459.182 652.915 459.182C640.313 459.182 629.646 457.252 620.313 453.27C600.52 444.837 584.473 421.679 592.146 400.641L592.18 400.56C595.829 392.516 604.595 387.9 616.234 387.9ZM668.118 404.027C667.311 404.027 666.509 404.006 665.723 403.96C657.125 403.457 649.076 400.117 641.289 396.891C636.893 395.071 632.349 393.183 627.775 391.823C624.022 390.732 620.134 390.175 616.226 390.168C605.546 390.168 597.547 394.277 594.266 401.447C587.087 421.257 602.4 443.131 621.213 451.142C630.259 454.993 640.639 456.864 652.919 456.864C663.32 456.864 673.92 455.538 683.831 454.102C698.341 451.991 712.222 449.389 722.581 440.589C728.586 435.5 732.649 427.532 733.181 419.795C733.603 413.905 731.96 408.736 728.472 404.842C722.932 398.656 714.456 397.355 708.324 397.355C705.054 397.371 701.793 397.691 698.582 398.31C695.271 398.935 691.906 399.779 688.654 400.594C681.994 402.3 675.098 404.027 668.118 404.027Z" fill="#400101"/>
<path d="M504.159 74.951C522.635 84.8663 528.965 108.434 527.04 127.39C525.473 142.842 519.632 157.529 513.982 171.73C512.373 175.78 510.705 179.969 509.172 184.095C503.606 199.065 496.964 221.282 503.454 241.289C507.745 254.499 518.34 265.562 532.529 271.626C546.719 277.69 562.031 277.707 574.544 271.677C587.791 265.288 597.58 253.578 607.061 242.252C611.372 237.092 615.836 231.75 620.574 226.936C628.75 218.663 639.236 212.274 649.337 209.403C661.263 206.024 671.862 207.578 680 213.934L678.594 215.733C662.546 203.216 637.576 212.988 622.2 228.541C617.508 233.287 613.078 238.587 608.792 243.718C599.172 255.229 589.227 267.133 575.532 273.734C562.441 280.068 546.423 280.068 531.613 273.734C516.803 267.399 505.756 255.85 501.262 242.012C494.548 221.32 501.33 198.609 507.01 183.314C508.556 179.159 510.224 174.961 511.837 170.899C517.428 156.841 523.209 142.301 524.742 127.171C526.588 108.97 520.595 86.3865 503.053 76.9695L504.159 74.951Z" fill="#400101"/>
<path d="M62.1728 542.921L126.174 478.922L124.558 477.306L60.5573 541.306L62.1728 542.921Z" fill="#400101"/>
<path d="M62.1567 574.142L142.16 494.141L140.545 492.525L60.5412 572.526L62.1567 574.142Z" fill="#400101"/>
<path d="M707.099 264.397C711.169 264.396 715.147 265.602 718.531 267.862C721.915 270.122 724.553 273.335 726.11 277.094C727.668 280.854 728.076 284.99 727.283 288.982C726.49 292.973 724.53 296.639 721.653 299.517C718.776 302.394 715.11 304.354 711.119 305.149C707.128 305.943 702.991 305.536 699.231 303.979C695.471 302.421 692.258 299.784 689.997 296.401C687.736 293.018 686.529 289.04 686.529 284.97C686.535 279.516 688.704 274.287 692.56 270.43C696.416 266.573 701.645 264.403 707.099 264.397V264.397ZM707.099 303.247C710.716 303.247 714.251 302.175 717.258 300.165C720.265 298.156 722.609 295.3 723.993 291.959C725.377 288.618 725.739 284.942 725.033 281.395C724.328 277.848 722.586 274.59 720.029 272.033C717.472 269.475 714.214 267.734 710.666 267.028C707.119 266.323 703.443 266.685 700.102 268.069C696.76 269.453 693.905 271.796 691.895 274.803C689.886 277.81 688.814 281.346 688.814 284.962C688.817 289.811 690.744 294.461 694.173 297.891C697.601 301.32 702.25 303.25 707.099 303.255V303.247Z" fill="#400101"/>
<g clip-path="url(#clip0_1_6480)">
<path d="M463.753 434.576L486.611 411.718L484.996 410.102L462.137 432.96L463.753 434.576Z" fill="#400101"/>
<path d="M485.004 434.593L486.619 432.978L463.761 410.12L462.145 411.735L485.004 434.593Z" fill="#400101"/>
</g>
<path d="M603.906 158.92L677.051 85.7771L675.435 84.1617L602.291 157.304L603.906 158.92Z" fill="#400101"/>
<path d="M585.999 147L634 98.9998L632.385 97.3843L584.383 145.385L585.999 147Z" fill="#400101"/>
<path d="M617.618 172.634L651.904 138.349L650.289 136.733L616.002 171.019L617.618 172.634Z" fill="#400101"/>
<defs>
<clipPath id="clip0_1_6480">
<rect width="24.4825" height="24.4904" fill="white" transform="matrix(-1 0 0 -1 486.619 434.594)"/>
</clipPath>
</defs>
</svg>
