<svg width="327" height="190" viewBox="0 0 327 190" fill="none" xmlns="http://www.w3.org/2000/svg">
<rect width="327" height="190" rx="16" fill="#400101"/>
<mask id="mask0_56_9089" style="mask-type:alpha" maskUnits="userSpaceOnUse" x="0" y="0" width="327" height="190">
<rect width="327" height="190" rx="16" fill="#1DAB87"/>
</mask>
<g mask="url(#mask0_56_9089)">
<path d="M46.189 -20C25.5764 2.22301 -14.8864 54.3126 -11.8369 84.8869C-8.02495 123.105 40.7333 114.474 47.883 112.064C52.8968 110.374 106.332 83.613 116.074 56.0112C125.816 28.4094 96.1418 30.9422 93.2024 31.8065C80.4926 35.5437 61.0129 43.6965 42.3769 79.7912C23.7409 115.886 20.776 142.638 34.3295 155.378C45.1723 165.569 70.2495 164.654 93.4667 162.918C133.837 159.9 166.307 134.315 187.653 119.708C209 105.1 289.446 47.6599 327 20.7658" stroke="#FFD866" stroke-width="0.5" stroke-linecap="round"/>
<rect x="20.25" y="24.25" width="31.5" height="23.881" rx="3.75" fill="white" stroke="#400101" stroke-width="0.5"/>
<path d="M20.5 31.5H29C30.1046 31.5 31 32.3954 31 33.5V37.375M31 47.9V43.25M31 43.25V37.375M31 43.25H20.5M31 37.375H20.5" stroke="#400101" stroke-width="0.5"/>
<path d="M51.5 31.5H41.5M41.5 31.5V37.375M41.5 31.5V24.5M41.5 47.9V43.25M41.5 43.25V37.375M41.5 43.25H51.5M41.5 37.375H51.5" stroke="#400101" stroke-width="0.5"/>
<path d="M76.1604 28.9102C79.4804 33.2102 79.4804 38.8002 76.1604 43.1002" stroke="white" stroke-width="1.5" stroke-linecap="round" stroke-linejoin="round"/>
<path d="M79.6404 26C84.3204 32.06 84.3204 39.94 79.6404 46" stroke="white" stroke-width="1.5" stroke-linecap="round" stroke-linejoin="round"/>
<path d="M72.5098 30.79C74.9498 33.94 74.9498 38.05 72.5098 41.2" stroke="white" stroke-width="1.5" stroke-linecap="round" stroke-linejoin="round"/>
<path d="M68.8506 33.3999C70.0706 34.9799 70.0706 37.0299 68.8506 38.6099" stroke="white" stroke-width="1.5" stroke-linecap="round" stroke-linejoin="round"/>
<path d="M20.63 94.75C20.63 93.1447 20.938 91.88 21.554 90.956C22.1793 90.032 23.1827 89.57 24.564 89.57C25.9453 89.57 26.944 90.032 27.56 90.956C28.1853 91.88 28.498 93.1447 28.498 94.75C28.498 96.374 28.1853 97.648 27.56 98.572C26.944 99.496 25.9453 99.958 24.564 99.958C23.1827 99.958 22.1793 99.496 21.554 98.572C20.938 97.648 20.63 96.374 20.63 94.75ZM26.146 94.75C26.146 93.8073 26.0433 93.084 25.838 92.58C25.6327 92.0667 25.208 91.81 24.564 91.81C23.92 91.81 23.4953 92.0667 23.29 92.58C23.0847 93.084 22.982 93.8073 22.982 94.75C22.982 95.3847 23.0193 95.912 23.094 96.332C23.1687 96.7427 23.318 97.0787 23.542 97.34C23.7753 97.592 24.116 97.718 24.564 97.718C25.012 97.718 25.348 97.592 25.572 97.34C25.8053 97.0787 25.9593 96.7427 26.034 96.332C26.1087 95.912 26.146 95.3847 26.146 94.75ZM30.0628 94.75C30.0628 93.1447 30.3708 91.88 30.9868 90.956C31.6121 90.032 32.6155 89.57 33.9968 89.57C35.3781 89.57 36.3768 90.032 36.9928 90.956C37.6181 91.88 37.9308 93.1447 37.9308 94.75C37.9308 96.374 37.6181 97.648 36.9928 98.572C36.3768 99.496 35.3781 99.958 33.9968 99.958C32.6155 99.958 31.6121 99.496 30.9868 98.572C30.3708 97.648 30.0628 96.374 30.0628 94.75ZM35.5788 94.75C35.5788 93.8073 35.4761 93.084 35.2708 92.58C35.0655 92.0667 34.6408 91.81 33.9968 91.81C33.3528 91.81 32.9281 92.0667 32.7228 92.58C32.5175 93.084 32.4148 93.8073 32.4148 94.75C32.4148 95.3847 32.4521 95.912 32.5268 96.332C32.6015 96.7427 32.7508 97.0787 32.9748 97.34C33.2081 97.592 33.5488 97.718 33.9968 97.718C34.4448 97.718 34.7808 97.592 35.0048 97.34C35.2381 97.0787 35.3921 96.7427 35.4668 96.332C35.5415 95.912 35.5788 95.3847 35.5788 94.75ZM39.4956 94.75C39.4956 93.1447 39.8036 91.88 40.4196 90.956C41.045 90.032 42.0483 89.57 43.4296 89.57C44.811 89.57 45.8096 90.032 46.4256 90.956C47.051 91.88 47.3636 93.1447 47.3636 94.75C47.3636 96.374 47.051 97.648 46.4256 98.572C45.8096 99.496 44.811 99.958 43.4296 99.958C42.0483 99.958 41.045 99.496 40.4196 98.572C39.8036 97.648 39.4956 96.374 39.4956 94.75ZM45.0116 94.75C45.0116 93.8073 44.909 93.084 44.7036 92.58C44.4983 92.0667 44.0736 91.81 43.4296 91.81C42.7856 91.81 42.361 92.0667 42.1556 92.58C41.9503 93.084 41.8476 93.8073 41.8476 94.75C41.8476 95.3847 41.885 95.912 41.9596 96.332C42.0343 96.7427 42.1836 97.0787 42.4076 97.34C42.641 97.592 42.9816 97.718 43.4296 97.718C43.8776 97.718 44.2136 97.592 44.4376 97.34C44.671 97.0787 44.825 96.7427 44.8996 96.332C44.9743 95.912 45.0116 95.3847 45.0116 94.75ZM48.9284 94.75C48.9284 93.1447 49.2364 91.88 49.8524 90.956C50.4778 90.032 51.4811 89.57 52.8624 89.57C54.2438 89.57 55.2424 90.032 55.8584 90.956C56.4838 91.88 56.7964 93.1447 56.7964 94.75C56.7964 96.374 56.4838 97.648 55.8584 98.572C55.2424 99.496 54.2438 99.958 52.8624 99.958C51.4811 99.958 50.4778 99.496 49.8524 98.572C49.2364 97.648 48.9284 96.374 48.9284 94.75ZM54.4444 94.75C54.4444 93.8073 54.3418 93.084 54.1364 92.58C53.9311 92.0667 53.5064 91.81 52.8624 91.81C52.2184 91.81 51.7938 92.0667 51.5884 92.58C51.3831 93.084 51.2804 93.8073 51.2804 94.75C51.2804 95.3847 51.3178 95.912 51.3924 96.332C51.4671 96.7427 51.6164 97.0787 51.8404 97.34C52.0738 97.592 52.4144 97.718 52.8624 97.718C53.3104 97.718 53.6464 97.592 53.8704 97.34C54.1038 97.0787 54.2578 96.7427 54.3324 96.332C54.4071 95.912 54.4444 95.3847 54.4444 94.75ZM68.1616 94.75C68.1616 93.1447 68.4696 91.88 69.0856 90.956C69.711 90.032 70.7143 89.57 72.0956 89.57C73.477 89.57 74.4756 90.032 75.0916 90.956C75.717 91.88 76.0296 93.1447 76.0296 94.75C76.0296 96.374 75.717 97.648 75.0916 98.572C74.4756 99.496 73.477 99.958 72.0956 99.958C70.7143 99.958 69.711 99.496 69.0856 98.572C68.4696 97.648 68.1616 96.374 68.1616 94.75ZM73.6776 94.75C73.6776 93.8073 73.575 93.084 73.3696 92.58C73.1643 92.0667 72.7396 91.81 72.0956 91.81C71.4516 91.81 71.027 92.0667 70.8216 92.58C70.6163 93.084 70.5136 93.8073 70.5136 94.75C70.5136 95.3847 70.551 95.912 70.6256 96.332C70.7003 96.7427 70.8496 97.0787 71.0736 97.34C71.307 97.592 71.6476 97.718 72.0956 97.718C72.5436 97.718 72.8796 97.592 73.1036 97.34C73.337 97.0787 73.491 96.7427 73.5656 96.332C73.6403 95.912 73.6776 95.3847 73.6776 94.75ZM77.5945 94.75C77.5945 93.1447 77.9025 91.88 78.5185 90.956C79.1438 90.032 80.1471 89.57 81.5285 89.57C82.9098 89.57 83.9085 90.032 84.5245 90.956C85.1498 91.88 85.4625 93.1447 85.4625 94.75C85.4625 96.374 85.1498 97.648 84.5245 98.572C83.9085 99.496 82.9098 99.958 81.5285 99.958C80.1471 99.958 79.1438 99.496 78.5185 98.572C77.9025 97.648 77.5945 96.374 77.5945 94.75ZM83.1105 94.75C83.1105 93.8073 83.0078 93.084 82.8025 92.58C82.5971 92.0667 82.1725 91.81 81.5285 91.81C80.8845 91.81 80.4598 92.0667 80.2545 92.58C80.0491 93.084 79.9465 93.8073 79.9465 94.75C79.9465 95.3847 79.9838 95.912 80.0585 96.332C80.1331 96.7427 80.2825 97.0787 80.5065 97.34C80.7398 97.592 81.0805 97.718 81.5285 97.718C81.9765 97.718 82.3125 97.592 82.5365 97.34C82.7698 97.0787 82.9238 96.7427 82.9985 96.332C83.0731 95.912 83.1105 95.3847 83.1105 94.75ZM87.0273 94.75C87.0273 93.1447 87.3353 91.88 87.9513 90.956C88.5766 90.032 89.5799 89.57 90.9613 89.57C92.3426 89.57 93.3413 90.032 93.9573 90.956C94.5826 91.88 94.8953 93.1447 94.8953 94.75C94.8953 96.374 94.5826 97.648 93.9573 98.572C93.3413 99.496 92.3426 99.958 90.9613 99.958C89.5799 99.958 88.5766 99.496 87.9513 98.572C87.3353 97.648 87.0273 96.374 87.0273 94.75ZM92.5433 94.75C92.5433 93.8073 92.4406 93.084 92.2353 92.58C92.0299 92.0667 91.6053 91.81 90.9613 91.81C90.3173 91.81 89.8926 92.0667 89.6873 92.58C89.4819 93.084 89.3793 93.8073 89.3793 94.75C89.3793 95.3847 89.4166 95.912 89.4913 96.332C89.5659 96.7427 89.7153 97.0787 89.9393 97.34C90.1726 97.592 90.5133 97.718 90.9613 97.718C91.4093 97.718 91.7453 97.592 91.9693 97.34C92.2026 97.0787 92.3566 96.7427 92.4313 96.332C92.5059 95.912 92.5433 95.3847 92.5433 94.75ZM96.4601 94.75C96.4601 93.1447 96.7681 91.88 97.3841 90.956C98.0094 90.032 99.0127 89.57 100.394 89.57C101.775 89.57 102.774 90.032 103.39 90.956C104.015 91.88 104.328 93.1447 104.328 94.75C104.328 96.374 104.015 97.648 103.39 98.572C102.774 99.496 101.775 99.958 100.394 99.958C99.0127 99.958 98.0094 99.496 97.3841 98.572C96.7681 97.648 96.4601 96.374 96.4601 94.75ZM101.976 94.75C101.976 93.8073 101.873 93.084 101.668 92.58C101.463 92.0667 101.038 91.81 100.394 91.81C99.7501 91.81 99.3254 92.0667 99.1201 92.58C98.9147 93.084 98.8121 93.8073 98.8121 94.75C98.8121 95.3847 98.8494 95.912 98.9241 96.332C98.9987 96.7427 99.1481 97.0787 99.3721 97.34C99.6054 97.592 99.9461 97.718 100.394 97.718C100.842 97.718 101.178 97.592 101.402 97.34C101.635 97.0787 101.789 96.7427 101.864 96.332C101.939 95.912 101.976 95.3847 101.976 94.75ZM115.693 94.75C115.693 93.1447 116.001 91.88 116.617 90.956C117.243 90.032 118.246 89.57 119.627 89.57C121.009 89.57 122.007 90.032 122.623 90.956C123.249 91.88 123.561 93.1447 123.561 94.75C123.561 96.374 123.249 97.648 122.623 98.572C122.007 99.496 121.009 99.958 119.627 99.958C118.246 99.958 117.243 99.496 116.617 98.572C116.001 97.648 115.693 96.374 115.693 94.75ZM121.209 94.75C121.209 93.8073 121.107 93.084 120.901 92.58C120.696 92.0667 120.271 91.81 119.627 91.81C118.983 91.81 118.559 92.0667 118.353 92.58C118.148 93.084 118.045 93.8073 118.045 94.75C118.045 95.3847 118.083 95.912 118.157 96.332C118.232 96.7427 118.381 97.0787 118.605 97.34C118.839 97.592 119.179 97.718 119.627 97.718C120.075 97.718 120.411 97.592 120.635 97.34C120.869 97.0787 121.023 96.7427 121.097 96.332C121.172 95.912 121.209 95.3847 121.209 94.75ZM125.126 94.75C125.126 93.1447 125.434 91.88 126.05 90.956C126.675 90.032 127.679 89.57 129.06 89.57C130.441 89.57 131.44 90.032 132.056 90.956C132.681 91.88 132.994 93.1447 132.994 94.75C132.994 96.374 132.681 97.648 132.056 98.572C131.44 99.496 130.441 99.958 129.06 99.958C127.679 99.958 126.675 99.496 126.05 98.572C125.434 97.648 125.126 96.374 125.126 94.75ZM130.642 94.75C130.642 93.8073 130.539 93.084 130.334 92.58C130.129 92.0667 129.704 91.81 129.06 91.81C128.416 91.81 127.991 92.0667 127.786 92.58C127.581 93.084 127.478 93.8073 127.478 94.75C127.478 95.3847 127.515 95.912 127.59 96.332C127.665 96.7427 127.814 97.0787 128.038 97.34C128.271 97.592 128.612 97.718 129.06 97.718C129.508 97.718 129.844 97.592 130.068 97.34C130.301 97.0787 130.455 96.7427 130.53 96.332C130.605 95.912 130.642 95.3847 130.642 94.75ZM134.559 94.75C134.559 93.1447 134.867 91.88 135.483 90.956C136.108 90.032 137.112 89.57 138.493 89.57C139.874 89.57 140.873 90.032 141.489 90.956C142.114 91.88 142.427 93.1447 142.427 94.75C142.427 96.374 142.114 97.648 141.489 98.572C140.873 99.496 139.874 99.958 138.493 99.958C137.112 99.958 136.108 99.496 135.483 98.572C134.867 97.648 134.559 96.374 134.559 94.75ZM140.075 94.75C140.075 93.8073 139.972 93.084 139.767 92.58C139.562 92.0667 139.137 91.81 138.493 91.81C137.849 91.81 137.424 92.0667 137.219 92.58C137.014 93.084 136.911 93.8073 136.911 94.75C136.911 95.3847 136.948 95.912 137.023 96.332C137.098 96.7427 137.247 97.0787 137.471 97.34C137.704 97.592 138.045 97.718 138.493 97.718C138.941 97.718 139.277 97.592 139.501 97.34C139.734 97.0787 139.888 96.7427 139.963 96.332C140.038 95.912 140.075 95.3847 140.075 94.75ZM143.992 94.75C143.992 93.1447 144.3 91.88 144.916 90.956C145.541 90.032 146.544 89.57 147.926 89.57C149.307 89.57 150.306 90.032 150.922 90.956C151.547 91.88 151.86 93.1447 151.86 94.75C151.86 96.374 151.547 97.648 150.922 98.572C150.306 99.496 149.307 99.958 147.926 99.958C146.544 99.958 145.541 99.496 144.916 98.572C144.3 97.648 143.992 96.374 143.992 94.75ZM149.508 94.75C149.508 93.8073 149.405 93.084 149.2 92.58C148.994 92.0667 148.57 91.81 147.926 91.81C147.282 91.81 146.857 92.0667 146.652 92.58C146.446 93.084 146.344 93.8073 146.344 94.75C146.344 95.3847 146.381 95.912 146.456 96.332C146.53 96.7427 146.68 97.0787 146.904 97.34C147.137 97.592 147.478 97.718 147.926 97.718C148.374 97.718 148.71 97.592 148.934 97.34C149.167 97.0787 149.321 96.7427 149.396 96.332C149.47 95.912 149.508 95.3847 149.508 94.75ZM163.225 94.75C163.225 93.1447 163.533 91.88 164.149 90.956C164.774 90.032 165.778 89.57 167.159 89.57C168.54 89.57 169.539 90.032 170.155 90.956C170.78 91.88 171.093 93.1447 171.093 94.75C171.093 96.374 170.78 97.648 170.155 98.572C169.539 99.496 168.54 99.958 167.159 99.958C165.778 99.958 164.774 99.496 164.149 98.572C163.533 97.648 163.225 96.374 163.225 94.75ZM168.741 94.75C168.741 93.8073 168.638 93.084 168.433 92.58C168.228 92.0667 167.803 91.81 167.159 91.81C166.515 91.81 166.09 92.0667 165.885 92.58C165.68 93.084 165.577 93.8073 165.577 94.75C165.577 95.3847 165.614 95.912 165.689 96.332C165.764 96.7427 165.913 97.0787 166.137 97.34C166.37 97.592 166.711 97.718 167.159 97.718C167.607 97.718 167.943 97.592 168.167 97.34C168.4 97.0787 168.554 96.7427 168.629 96.332C168.704 95.912 168.741 95.3847 168.741 94.75ZM172.658 94.75C172.658 93.1447 172.966 91.88 173.582 90.956C174.207 90.032 175.21 89.57 176.592 89.57C177.973 89.57 178.972 90.032 179.588 90.956C180.213 91.88 180.526 93.1447 180.526 94.75C180.526 96.374 180.213 97.648 179.588 98.572C178.972 99.496 177.973 99.958 176.592 99.958C175.21 99.958 174.207 99.496 173.582 98.572C172.966 97.648 172.658 96.374 172.658 94.75ZM178.174 94.75C178.174 93.8073 178.071 93.084 177.866 92.58C177.66 92.0667 177.236 91.81 176.592 91.81C175.948 91.81 175.523 92.0667 175.318 92.58C175.112 93.084 175.01 93.8073 175.01 94.75C175.01 95.3847 175.047 95.912 175.122 96.332C175.196 96.7427 175.346 97.0787 175.57 97.34C175.803 97.592 176.144 97.718 176.592 97.718C177.04 97.718 177.376 97.592 177.6 97.34C177.833 97.0787 177.987 96.7427 178.062 96.332C178.136 95.912 178.174 95.3847 178.174 94.75ZM182.091 94.75C182.091 93.1447 182.399 91.88 183.015 90.956C183.64 90.032 184.643 89.57 186.025 89.57C187.406 89.57 188.405 90.032 189.021 90.956C189.646 91.88 189.959 93.1447 189.959 94.75C189.959 96.374 189.646 97.648 189.021 98.572C188.405 99.496 187.406 99.958 186.025 99.958C184.643 99.958 183.64 99.496 183.015 98.572C182.399 97.648 182.091 96.374 182.091 94.75ZM187.607 94.75C187.607 93.8073 187.504 93.084 187.299 92.58C187.093 92.0667 186.669 91.81 186.025 91.81C185.381 91.81 184.956 92.0667 184.751 92.58C184.545 93.084 184.443 93.8073 184.443 94.75C184.443 95.3847 184.48 95.912 184.555 96.332C184.629 96.7427 184.779 97.0787 185.003 97.34C185.236 97.592 185.577 97.718 186.025 97.718C186.473 97.718 186.809 97.592 187.033 97.34C187.266 97.0787 187.42 96.7427 187.495 96.332C187.569 95.912 187.607 95.3847 187.607 94.75ZM191.523 94.75C191.523 93.1447 191.831 91.88 192.447 90.956C193.073 90.032 194.076 89.57 195.457 89.57C196.839 89.57 197.837 90.032 198.453 90.956C199.079 91.88 199.391 93.1447 199.391 94.75C199.391 96.374 199.079 97.648 198.453 98.572C197.837 99.496 196.839 99.958 195.457 99.958C194.076 99.958 193.073 99.496 192.447 98.572C191.831 97.648 191.523 96.374 191.523 94.75ZM197.039 94.75C197.039 93.8073 196.937 93.084 196.731 92.58C196.526 92.0667 196.101 91.81 195.457 91.81C194.813 91.81 194.389 92.0667 194.183 92.58C193.978 93.084 193.875 93.8073 193.875 94.75C193.875 95.3847 193.913 95.912 193.987 96.332C194.062 96.7427 194.211 97.0787 194.435 97.34C194.669 97.592 195.009 97.718 195.457 97.718C195.905 97.718 196.241 97.592 196.465 97.34C196.699 97.0787 196.853 96.7427 196.927 96.332C197.002 95.912 197.039 95.3847 197.039 94.75Z" fill="white"/>
</g>
<path d="M0 126H327V166C327 173.455 327 177.183 325.782 180.123C324.158 184.043 321.043 187.158 317.123 188.782C314.183 190 310.455 190 303 190H24C16.5449 190 12.8174 190 9.87706 188.782C5.95662 187.158 2.84183 184.043 1.21793 180.123C0 177.183 0 173.455 0 166V126Z" fill="#FFD866"/>
<path d="M28.736 141.228L25.432 147.598V151H23.472V147.598L20.154 141.228H22.366L24.466 145.694L26.552 141.228H28.736ZM33.6104 151.126C32.8637 151.126 32.1917 150.963 31.5944 150.636C30.9971 150.3 30.5257 149.829 30.1804 149.222C29.8444 148.615 29.6764 147.915 29.6764 147.122C29.6764 146.329 29.8491 145.629 30.1944 145.022C30.5491 144.415 31.0297 143.949 31.6364 143.622C32.2431 143.286 32.9197 143.118 33.6664 143.118C34.4131 143.118 35.0897 143.286 35.6964 143.622C36.3031 143.949 36.7791 144.415 37.1244 145.022C37.4791 145.629 37.6564 146.329 37.6564 147.122C37.6564 147.915 37.4744 148.615 37.1104 149.222C36.7557 149.829 36.2704 150.3 35.6544 150.636C35.0477 150.963 34.3664 151.126 33.6104 151.126ZM33.6104 149.418C33.9651 149.418 34.2964 149.334 34.6044 149.166C34.9217 148.989 35.1737 148.727 35.3604 148.382C35.5471 148.037 35.6404 147.617 35.6404 147.122C35.6404 146.385 35.4444 145.82 35.0524 145.428C34.6697 145.027 34.1984 144.826 33.6384 144.826C33.0784 144.826 32.6071 145.027 32.2244 145.428C31.8511 145.82 31.6644 146.385 31.6644 147.122C31.6644 147.859 31.8464 148.429 32.2104 148.83C32.5837 149.222 33.0504 149.418 33.6104 149.418ZM46.7161 143.244V151H44.7421V150.02C44.4901 150.356 44.1588 150.622 43.7481 150.818C43.3468 151.005 42.9081 151.098 42.4321 151.098C41.8255 151.098 41.2888 150.972 40.8221 150.72C40.3555 150.459 39.9868 150.081 39.7161 149.586C39.4548 149.082 39.3241 148.485 39.3241 147.794V143.244H41.2841V147.514C41.2841 148.13 41.4381 148.606 41.7461 148.942C42.0541 149.269 42.4741 149.432 43.0061 149.432C43.5475 149.432 43.9721 149.269 44.2801 148.942C44.5881 148.606 44.7421 148.13 44.7421 147.514V143.244H46.7161ZM50.91 144.448C51.162 144.037 51.4887 143.715 51.89 143.482C52.3007 143.249 52.7673 143.132 53.29 143.132V145.19H52.772C52.156 145.19 51.6893 145.335 51.372 145.624C51.064 145.913 50.91 146.417 50.91 147.136V151H48.95V143.244H50.91V144.448ZM66.9041 151H64.9441L60.5061 144.294V151H58.5461V141.214H60.5061L64.9441 147.934V141.214H66.9041V151ZM68.637 147.094C68.637 146.31 68.791 145.615 69.099 145.008C69.4163 144.401 69.841 143.935 70.373 143.608C70.9143 143.281 71.5163 143.118 72.179 143.118C72.7577 143.118 73.2617 143.235 73.691 143.468C74.1297 143.701 74.4797 143.995 74.741 144.35V143.244H76.715V151H74.741V149.866C74.489 150.23 74.139 150.533 73.691 150.776C73.2523 151.009 72.7437 151.126 72.165 151.126C71.5117 151.126 70.9143 150.958 70.373 150.622C69.841 150.286 69.4163 149.815 69.099 149.208C68.791 148.592 68.637 147.887 68.637 147.094ZM74.741 147.122C74.741 146.646 74.6477 146.24 74.461 145.904C74.2743 145.559 74.0223 145.297 73.705 145.12C73.3877 144.933 73.047 144.84 72.683 144.84C72.319 144.84 71.983 144.929 71.675 145.106C71.367 145.283 71.115 145.545 70.919 145.89C70.7323 146.226 70.639 146.627 70.639 147.094C70.639 147.561 70.7323 147.971 70.919 148.326C71.115 148.671 71.367 148.937 71.675 149.124C71.9923 149.311 72.3283 149.404 72.683 149.404C73.047 149.404 73.3877 149.315 73.705 149.138C74.0223 148.951 74.2743 148.69 74.461 148.354C74.6477 148.009 74.741 147.598 74.741 147.122ZM88.5613 143.132C89.5133 143.132 90.2786 143.426 90.8573 144.014C91.4453 144.593 91.7393 145.405 91.7393 146.45V151H89.7793V146.716C89.7793 146.109 89.6253 145.647 89.3173 145.33C89.0093 145.003 88.5893 144.84 88.0573 144.84C87.5253 144.84 87.1006 145.003 86.7833 145.33C86.4753 145.647 86.3213 146.109 86.3213 146.716V151H84.3613V146.716C84.3613 146.109 84.2073 145.647 83.8993 145.33C83.5913 145.003 83.1713 144.84 82.6393 144.84C82.0979 144.84 81.6686 145.003 81.3513 145.33C81.0433 145.647 80.8893 146.109 80.8893 146.716V151H78.9293V143.244H80.8893V144.182C81.1413 143.855 81.4633 143.599 81.8553 143.412C82.2566 143.225 82.6953 143.132 83.1713 143.132C83.7779 143.132 84.3193 143.263 84.7953 143.524C85.2713 143.776 85.6399 144.14 85.9013 144.616C86.1533 144.168 86.5173 143.809 86.9933 143.538C87.4786 143.267 88.0013 143.132 88.5613 143.132ZM101.109 146.954C101.109 147.234 101.091 147.486 101.053 147.71H95.3832C95.4299 148.27 95.6259 148.709 95.9712 149.026C96.3165 149.343 96.7412 149.502 97.2452 149.502C97.9732 149.502 98.4912 149.189 98.7992 148.564H100.913C100.689 149.311 100.26 149.927 99.6252 150.412C98.9905 150.888 98.2112 151.126 97.2872 151.126C96.5405 151.126 95.8685 150.963 95.2712 150.636C94.6832 150.3 94.2212 149.829 93.8852 149.222C93.5585 148.615 93.3952 147.915 93.3952 147.122C93.3952 146.319 93.5585 145.615 93.8852 145.008C94.2119 144.401 94.6692 143.935 95.2572 143.608C95.8452 143.281 96.5219 143.118 97.2872 143.118C98.0245 143.118 98.6825 143.277 99.2612 143.594C99.8492 143.911 100.302 144.364 100.619 144.952C100.946 145.531 101.109 146.198 101.109 146.954ZM99.0792 146.394C99.0699 145.89 98.8879 145.489 98.5332 145.19C98.1785 144.882 97.7445 144.728 97.2312 144.728C96.7459 144.728 96.3352 144.877 95.9992 145.176C95.6725 145.465 95.4719 145.871 95.3972 146.394H99.0792Z" fill="white"/>
<path opacity="0.6" d="M20.62 166.31C20.62 165.163 20.8067 164.27 21.18 163.63C21.5533 162.983 22.2067 162.66 23.14 162.66C24.0667 162.66 24.7167 162.983 25.09 163.63C25.4633 164.27 25.65 165.163 25.65 166.31C25.65 167.477 25.4633 168.383 25.09 169.03C24.7167 169.677 24.0667 170 23.14 170C22.2067 170 21.5533 169.677 21.18 169.03C20.8067 168.383 20.62 167.477 20.62 166.31ZM24.75 166.31C24.75 165.73 24.71 165.24 24.63 164.84C24.5567 164.433 24.4 164.107 24.16 163.86C23.9267 163.613 23.5867 163.49 23.14 163.49C22.6867 163.49 22.34 163.613 22.1 163.86C21.8667 164.107 21.71 164.433 21.63 164.84C21.5567 165.24 21.52 165.73 21.52 166.31C21.52 166.91 21.5567 167.413 21.63 167.82C21.71 168.227 21.8667 168.553 22.1 168.8C22.34 169.047 22.6867 169.17 23.14 169.17C23.5867 169.17 23.9267 169.047 24.16 168.8C24.4 168.553 24.5567 168.227 24.63 167.82C24.71 167.413 24.75 166.91 24.75 166.31ZM27.1993 166.31C27.1993 165.163 27.386 164.27 27.7593 163.63C28.1326 162.983 28.786 162.66 29.7193 162.66C30.646 162.66 31.296 162.983 31.6693 163.63C32.0426 164.27 32.2293 165.163 32.2293 166.31C32.2293 167.477 32.0426 168.383 31.6693 169.03C31.296 169.677 30.646 170 29.7193 170C28.786 170 28.1326 169.677 27.7593 169.03C27.386 168.383 27.1993 167.477 27.1993 166.31ZM31.3293 166.31C31.3293 165.73 31.2893 165.24 31.2093 164.84C31.136 164.433 30.9793 164.107 30.7393 163.86C30.506 163.613 30.166 163.49 29.7193 163.49C29.266 163.49 28.9193 163.613 28.6793 163.86C28.446 164.107 28.2893 164.433 28.2093 164.84C28.136 165.24 28.0993 165.73 28.0993 166.31C28.0993 166.91 28.136 167.413 28.2093 167.82C28.2893 168.227 28.446 168.553 28.6793 168.8C28.9193 169.047 29.266 169.17 29.7193 169.17C30.166 169.17 30.506 169.047 30.7393 168.8C30.9793 168.553 31.136 168.227 31.2093 167.82C31.2893 167.413 31.3293 166.91 31.3293 166.31ZM37.3286 160.58L34.5886 171.7H33.6886L36.4186 160.58H37.3286ZM38.8345 166.31C38.8345 165.163 39.0211 164.27 39.3945 163.63C39.7678 162.983 40.4211 162.66 41.3545 162.66C42.2811 162.66 42.9311 162.983 43.3045 163.63C43.6778 164.27 43.8645 165.163 43.8645 166.31C43.8645 167.477 43.6778 168.383 43.3045 169.03C42.9311 169.677 42.2811 170 41.3545 170C40.4211 170 39.7678 169.677 39.3945 169.03C39.0211 168.383 38.8345 167.477 38.8345 166.31ZM42.9645 166.31C42.9645 165.73 42.9245 165.24 42.8445 164.84C42.7711 164.433 42.6145 164.107 42.3745 163.86C42.1411 163.613 41.8011 163.49 41.3545 163.49C40.9011 163.49 40.5545 163.613 40.3145 163.86C40.0811 164.107 39.9245 164.433 39.8445 164.84C39.7711 165.24 39.7345 165.73 39.7345 166.31C39.7345 166.91 39.7711 167.413 39.8445 167.82C39.9245 168.227 40.0811 168.553 40.3145 168.8C40.5545 169.047 40.9011 169.17 41.3545 169.17C41.8011 169.17 42.1411 169.047 42.3745 168.8C42.6145 168.553 42.7711 168.227 42.8445 167.82C42.9245 167.413 42.9645 166.91 42.9645 166.31ZM45.4138 166.31C45.4138 165.163 45.6004 164.27 45.9738 163.63C46.3471 162.983 47.0004 162.66 47.9338 162.66C48.8604 162.66 49.5104 162.983 49.8838 163.63C50.2571 164.27 50.4438 165.163 50.4438 166.31C50.4438 167.477 50.2571 168.383 49.8838 169.03C49.5104 169.677 48.8604 170 47.9338 170C47.0004 170 46.3471 169.677 45.9738 169.03C45.6004 168.383 45.4138 167.477 45.4138 166.31ZM49.5438 166.31C49.5438 165.73 49.5038 165.24 49.4238 164.84C49.3504 164.433 49.1938 164.107 48.9538 163.86C48.7204 163.613 48.3804 163.49 47.9338 163.49C47.4804 163.49 47.1338 163.613 46.8938 163.86C46.6604 164.107 46.5038 164.433 46.4238 164.84C46.3504 165.24 46.3138 165.73 46.3138 166.31C46.3138 166.91 46.3504 167.413 46.4238 167.82C46.5038 168.227 46.6604 168.553 46.8938 168.8C47.1338 169.047 47.4804 169.17 47.9338 169.17C48.3804 169.17 48.7204 169.047 48.9538 168.8C49.1938 168.553 49.3504 168.227 49.4238 167.82C49.5038 167.413 49.5438 166.91 49.5438 166.31Z" fill="white"/>
<circle opacity="0.5" cx="294" cy="155" r="13" fill="white"/>
<circle opacity="0.8" cx="277" cy="155" r="13" fill="white"/>
</svg>
