<svg width="303" height="490" viewBox="0 0 303 490" fill="none" xmlns="http://www.w3.org/2000/svg">
<path d="M140.813 129.37L162.768 208.442L154.935 199.559C157.831 201.082 161.193 202.249 164.899 203.062C168.606 203.89 172.658 204.363 176.89 204.57C181.122 204.792 185.534 204.747 190.052 204.57C194.569 204.378 199.176 204.053 203.858 203.653H203.888C210.791 203.077 216.869 208.117 217.455 214.916C218.01 221.404 213.343 227.139 206.935 228.173C202.102 228.927 197.195 229.651 192.168 230.228C187.125 230.804 181.963 231.233 176.62 231.351C171.277 231.469 165.74 231.262 160.007 230.449C154.289 229.637 148.361 228.159 142.569 225.705C138.862 224.124 136.221 221.138 135.02 217.635L134.735 216.808L108.397 139.051C105.441 130.316 110.228 120.857 119.112 117.945C127.982 115.033 137.586 119.748 140.543 128.498C140.633 128.764 140.738 129.089 140.813 129.37Z" fill="#EA9B7A"/>
<path d="M149.261 416.011C148.931 416.011 148.601 415.952 148.271 415.833L33.2556 374.996C31.7549 374.464 30.9745 372.824 31.5148 371.346C32.0551 369.868 33.7209 369.085 35.2216 369.631L150.237 410.468C151.738 411 152.533 412.641 151.978 414.119C151.573 415.286 150.447 416.011 149.261 416.011Z" fill="#C77E2E"/>
<path d="M29.459 416.01C28.2734 416.01 27.1629 415.286 26.7277 414.119C26.1874 412.641 26.9678 411 28.4685 410.453L144.85 368.937C146.35 368.404 148.016 369.173 148.571 370.651C149.112 372.129 148.331 373.77 146.83 374.316L30.4495 415.833C30.1193 415.951 29.7892 416.01 29.459 416.01Z" fill="#C77E2E"/>
<path d="M159.497 488.994C157.051 488.994 154.92 487.205 154.575 484.752L133.805 331.972H46.8681L26.4133 484.752C26.0531 487.427 23.5619 489.319 20.8456 488.964C18.1293 488.609 16.2084 486.156 16.5686 483.481L37.5937 326.474C37.9238 324.035 40.0248 322.218 42.516 322.218H138.157C140.648 322.218 142.749 324.035 143.079 326.459L164.435 483.466C164.795 486.141 162.889 488.609 160.173 488.964C159.933 488.979 159.722 488.994 159.497 488.994Z" fill="#FAAF3A"/>
<path d="M110.453 327.095H48.3381C28.6636 327.095 7.59346 316.483 4.562 297.343C0.525057 271.729 -0.480416 246.944 0.645125 224.183C1.92074 198.451 14.4067 174.507 34.9366 158.545C34.9366 158.545 47.3476 211.797 31.7401 285.297C37.7129 313.202 110.453 327.095 110.453 327.095Z" fill="#FAAF3A"/>
<path d="M97.5026 14.7814C97.5026 14.7814 90.1191 -2.74754 70.5647 0.56315C56.9081 2.86881 51.0853 19.6292 51.8807 45.5235C53.0512 83.1974 40.115 105.899 40.115 105.899L57.2833 109.742C57.2983 109.727 101.014 45.1393 97.5026 14.7814Z" fill="#39393B"/>
<path d="M254.148 423.533H226.399C226.399 423.533 219.976 393.205 217.83 376.208C215.669 359.197 214.559 318.892 214.559 318.892C214.559 318.892 192.453 325.971 146.171 323.296C43.6263 317.399 82.51 243.204 82.51 243.204C85.9767 247.919 107.197 244.653 121.709 246.899C166.235 251.111 204.834 268.315 228.005 278.158C233.588 280.523 238.54 283.036 242.892 285.681C248.475 289.066 251.972 299.368 254.088 312.891C260.406 353.551 254.148 423.533 254.148 423.533Z" fill="#39393B"/>
<path d="M229.851 408.916C229.386 408.916 228.981 408.591 228.876 408.133C224.869 388.623 223.533 364.34 222.453 344.831C221.552 328.647 220.712 313.364 218.596 311.532C216.885 310.039 209.787 311.206 200.812 312.67C182.939 315.596 155.926 320 126.151 313.187C109.929 309.462 97.9978 301.703 90.7043 290.116C78.1132 270.133 83.861 245.347 83.921 245.096C84.041 244.564 84.5813 244.239 85.1216 244.372C85.6618 244.49 85.992 245.022 85.8569 245.554C85.7969 245.791 80.2592 269.808 92.4151 289.096C99.4235 300.225 110.934 307.689 126.617 311.28C156.016 318.02 182.789 313.645 200.512 310.748C211.122 309.019 217.53 307.97 219.946 310.068C222.558 312.344 223.293 323.518 224.464 344.727C225.544 364.177 226.88 388.372 230.857 407.749C230.962 408.281 230.617 408.798 230.076 408.901C229.971 408.916 229.911 408.916 229.851 408.916Z" fill="#585859"/>
<path d="M254.674 409.433H254.659L223.804 408.783C223.248 408.768 222.813 408.325 222.828 407.778C222.843 407.231 223.293 406.802 223.849 406.817L254.704 407.468C255.259 407.482 255.694 407.926 255.679 408.473C255.664 409.005 255.214 409.433 254.674 409.433Z" fill="#585859"/>
<path d="M253.383 458.532H233.799L230.032 435.919L227.961 423.533H252.287L252.678 435.919L253.383 458.532Z" fill="#EA9B7A"/>
<path d="M253.384 458.532H233.8L230.993 441.698L230.033 435.919H252.679L252.874 441.905L253.384 458.532Z" fill="#FAAF3A"/>
<path d="M252.874 441.905L230.993 441.698L230.033 435.919H252.679L252.874 441.905Z" fill="#C77E2E"/>
<path d="M301.707 488.993H227.646C227.091 488.003 226.791 486.614 226.671 484.944C226.205 478.766 228.201 468.922 229.177 462.715C229.297 461.991 229.402 461.311 229.477 460.705C229.612 459.67 229.702 458.798 229.702 458.163C229.702 453.093 234.249 453.965 234.249 453.965C241.738 461.207 250.232 450.344 255.184 453.906C255.184 453.906 255.379 454.054 255.845 454.394C256.265 454.719 256.895 455.221 257.766 455.946C259.026 456.98 260.797 458.488 263.198 460.616C269.081 465.833 279.076 469.262 287.585 472.765C288.665 473.209 289.671 473.667 290.616 474.11C291.322 474.45 291.997 474.79 292.627 475.115C299.591 478.81 301.797 482.357 302.307 484.929C302.802 487.412 301.707 488.993 301.707 488.993Z" fill="#0875F7"/>
<path d="M292.642 475.13C290.736 476.623 286.489 479.623 283.082 479.623C282.932 479.623 282.782 479.623 282.632 479.608C280.231 479.416 271.406 475.145 264.218 471.258C260.106 469.026 256.339 466.838 253.638 465.08C249.211 462.197 248.43 461.104 248.265 460.335C247.62 457.453 252.452 455.458 255.844 454.408C256.264 454.734 256.894 455.236 257.765 455.96C253.563 457.084 250.096 458.857 250.261 459.877C250.681 460.734 255.064 464.015 265.539 469.676C273.537 473.992 281.116 477.465 282.797 477.613C285.078 477.79 288.425 475.751 290.616 474.14C291.336 474.465 292.011 474.805 292.642 475.13Z" fill="#084FC7"/>
<path d="M301.706 488.993H227.645C227.09 488.003 226.79 486.614 226.67 484.944H302.321C302.801 487.412 301.706 488.993 301.706 488.993Z" fill="#084FC7"/>
<path d="M235.195 488.993H232.989C235.18 486.525 237.236 482.727 236.966 477.317C236.605 470.105 232.223 465.257 229.162 462.715C229.282 461.99 229.387 461.311 229.462 460.705C232.749 463.173 238.286 468.597 238.721 477.228C239.007 482.401 237.281 486.259 235.195 488.993Z" fill="#084FC7"/>
<path d="M261.953 464.932C261.412 464.932 260.902 464.562 260.767 464.016C260.602 463.365 261.007 462.715 261.653 462.552L266.275 461.414C266.935 461.252 267.595 461.651 267.761 462.286C267.926 462.937 267.52 463.587 266.875 463.749L262.253 464.888C262.148 464.917 262.043 464.932 261.953 464.932Z" fill="white"/>
<path d="M257.361 461.148C256.821 461.148 256.31 460.779 256.175 460.232C256.01 459.582 256.415 458.931 257.061 458.769L261.683 457.631C262.343 457.468 263.004 457.867 263.169 458.503C263.334 459.153 262.929 459.803 262.283 459.951L257.661 461.089C257.556 461.133 257.451 461.148 257.361 461.148Z" fill="white"/>
<path d="M266.576 467.578C266.035 467.578 265.525 467.208 265.39 466.661C265.225 466.011 265.63 465.361 266.276 465.213L270.898 464.075C271.558 463.912 272.218 464.311 272.384 464.947C272.549 465.597 272.143 466.247 271.498 466.41L266.876 467.548C266.771 467.578 266.681 467.578 266.576 467.578Z" fill="white"/>
<path d="M271.197 470.134C270.642 470.134 270.146 469.765 270.011 469.218C269.846 468.568 270.251 467.917 270.897 467.755L275.519 466.617C276.179 466.454 276.84 466.853 277.005 467.489C277.17 468.139 276.765 468.789 276.119 468.937L271.497 470.075C271.407 470.119 271.302 470.134 271.197 470.134Z" fill="white"/>
<path d="M276.255 472.484C275.715 472.484 275.205 472.115 275.07 471.568C274.905 470.918 275.31 470.267 275.955 470.119L280.578 468.981C281.238 468.819 281.898 469.218 282.063 469.853C282.228 470.504 281.823 471.154 281.178 471.317L276.556 472.455C276.451 472.469 276.345 472.484 276.255 472.484Z" fill="white"/>
<path d="M281.716 474.494C281.176 474.494 280.666 474.125 280.531 473.578C280.366 472.928 280.771 472.277 281.416 472.115L286.038 470.977C286.699 470.814 287.359 471.213 287.524 471.849C287.689 472.499 287.284 473.149 286.639 473.297L282.017 474.435C281.911 474.48 281.821 474.494 281.716 474.494Z" fill="white"/>
<path d="M31.1564 219.675C31.1564 219.675 30.286 225.572 38.2998 227.227L121.86 229.976C121.86 229.976 127.503 227.183 126.482 220.295C126.482 220.281 91.2003 200.756 31.1564 219.675Z" fill="#084FC7"/>
<path d="M122.999 246.884C79.6282 270.384 32.2654 251.466 32.2654 251.466C34.5765 245.244 36.3023 238.223 37.5479 231.838C38.9886 224.404 39.799 217.842 40.1742 214.398C58.6181 213.408 103.85 211.501 121.573 215.64L121.708 222.631L122.999 246.884Z" fill="#EA9B7A"/>
<path d="M90.9588 235.622C90.6436 237.825 89.6231 239.509 88.7077 239.376C87.7772 239.243 87.297 237.352 87.6122 235.149C87.9273 232.947 88.9478 231.262 89.8632 231.395C90.7937 231.528 91.2739 233.42 90.9588 235.622Z" fill="#D96C63"/>
<path d="M121.693 222.631C103.22 221.522 66.8871 221.138 37.533 231.824C38.9737 224.39 39.784 217.827 40.1592 214.384C58.6031 213.393 103.835 211.487 121.558 215.625L121.693 222.631Z" fill="#D96C63"/>
<path d="M142.3 188.829C142.12 189.361 141.91 189.849 141.67 190.307C141.58 190.485 141.49 190.662 141.399 190.824C139.073 195.066 135.487 198.746 132.47 201.363C131.84 201.909 131.24 202.397 130.684 202.84C129.574 203.727 128.628 204.422 127.983 204.88C127.383 205.294 127.038 205.516 127.038 205.516C127.038 205.56 127.038 205.59 127.023 205.649C126.993 205.959 126.963 206.299 126.933 206.654C126.827 207.999 126.737 209.595 126.677 211.428C126.617 212.891 126.572 214.502 126.542 216.246C126.527 217.532 126.497 218.877 126.482 220.266C101.975 209.477 51.4912 216.29 31.1564 219.66C31.5316 217.931 31.8617 216.231 32.1769 214.576C33.6176 206.935 34.428 200.062 34.7431 193.899C35.2234 184.735 34.413 170.96 32.432 156.727C32.312 155.796 32.1769 154.88 32.0418 153.963C31.9518 153.357 31.8618 152.766 31.7567 152.16C31.0664 147.697 30.256 143.218 29.3405 138.873C25.3336 119.925 28.14 100.046 47.6494 97.6965C49.06 97.5191 50.4557 97.3713 51.8214 97.2235C61.0058 96.2628 68.5694 95.9229 70.6704 95.849C71.0606 95.8342 71.2557 95.8342 71.2557 95.8342L108.954 106.624L112.541 107.643C114.597 108.294 116.502 108.929 118.273 109.55C119.024 109.816 119.759 110.082 120.449 110.333C122.28 111.013 123.931 111.663 125.447 112.329C128.463 113.644 130.849 114.93 132.74 116.245C141.009 122.024 139.734 128.557 139.524 141.46C139.524 141.519 139.524 141.578 139.524 141.637C139.524 141.8 139.524 141.962 139.524 142.14C139.524 142.213 139.524 142.287 139.524 142.361C139.524 142.893 139.524 143.411 139.524 143.943C139.539 145.613 139.599 147.268 139.704 148.924C139.839 151.362 140.064 153.786 140.334 156.151C140.439 157.097 140.544 158.043 140.664 158.989C140.769 159.875 140.889 160.747 141.009 161.619C142.48 172.911 144.356 182.814 142.3 188.829Z" fill="#0875F7"/>
<path d="M139.508 141.637C139.508 141.8 139.508 141.962 139.508 142.14C139.508 142.213 139.508 142.287 139.508 142.361C139.508 142.893 139.508 143.411 139.508 143.943L131.584 148.835C131.344 148.983 131.074 149.027 130.804 148.983C130.504 148.938 130.234 148.761 130.054 148.495C129.724 147.978 129.889 147.312 130.399 146.987L138.803 141.8C139.013 141.667 139.268 141.622 139.508 141.637Z" fill="#084FC7"/>
<path d="M87.2835 183.434C86.9833 183.434 86.6832 183.316 86.4581 183.079C86.0529 182.636 86.0829 181.941 86.5331 181.542L93.9016 175.01C94.3518 174.611 95.0572 174.64 95.4624 175.084C95.8676 175.527 95.8376 176.222 95.3873 176.621L88.0188 183.153C87.8087 183.331 87.5386 183.434 87.2835 183.434Z" fill="#084FC7"/>
<path d="M140.979 161.619L135.937 166.098C135.727 166.29 135.457 166.378 135.201 166.378C134.901 166.378 134.601 166.26 134.376 166.024C133.971 165.58 134.001 164.886 134.451 164.487L140.634 159.003C140.739 159.875 140.859 160.747 140.979 161.619Z" fill="#084FC7"/>
<path d="M72.3346 157.156C72.1695 156.904 72.0945 156.594 72.1695 156.284C72.3046 155.692 72.9049 155.338 73.5052 155.471L83.1548 157.717C83.7551 157.85 84.1153 158.442 83.9802 159.033C83.8451 159.624 83.2449 159.979 82.6446 159.846L72.9949 157.599C72.7098 157.54 72.4847 157.377 72.3346 157.156Z" fill="#084FC7"/>
<path d="M37.8948 175.808C37.5946 175.808 37.2945 175.69 37.0694 175.453C36.6642 175.01 36.6942 174.315 37.1444 173.916L44.513 167.384C44.9632 166.985 45.6685 167.014 46.0737 167.458C46.4789 167.901 46.4489 168.596 45.9987 168.995L38.6301 175.527C38.42 175.72 38.1649 175.808 37.8948 175.808Z" fill="#084FC7"/>
<path d="M123.676 174.256C123.766 173.975 123.991 173.724 124.276 173.606C124.831 173.369 125.492 173.621 125.732 174.167L129.694 183.124C129.934 183.671 129.679 184.321 129.123 184.558C128.568 184.794 127.908 184.543 127.668 183.996L123.706 175.039C123.601 174.773 123.601 174.493 123.676 174.256Z" fill="#084FC7"/>
<path d="M142.299 188.829C142.119 189.361 141.909 189.849 141.669 190.307C141.579 190.484 141.489 190.662 141.399 190.824L136.011 189.154C135.741 189.065 135.531 188.888 135.396 188.666C135.246 188.415 135.186 188.09 135.291 187.794C135.471 187.218 136.101 186.908 136.672 187.085L142.299 188.829Z" fill="#084FC7"/>
<path d="M111.864 189.612C112.164 189.583 112.479 189.672 112.719 189.893C113.169 190.292 113.199 190.987 112.794 191.43L106.131 198.658C105.726 199.101 105.02 199.131 104.57 198.732C104.12 198.333 104.09 197.638 104.495 197.195L111.158 189.967C111.353 189.76 111.609 189.642 111.864 189.612Z" fill="#084FC7"/>
<path d="M107.949 172.941C107.648 172.896 107.378 172.719 107.198 172.453C106.868 171.95 107.033 171.271 107.543 170.945L115.947 165.758C116.458 165.432 117.148 165.595 117.478 166.098C117.808 166.6 117.643 167.28 117.133 167.605L108.729 172.793C108.489 172.941 108.204 172.985 107.949 172.941Z" fill="#084FC7"/>
<path d="M113.304 141.489C113.499 141.711 113.619 142.006 113.574 142.332C113.514 142.923 112.959 143.366 112.359 143.292L102.499 142.228C101.899 142.169 101.449 141.622 101.524 141.031C101.584 140.44 102.139 139.996 102.739 140.07L112.599 141.134C112.869 141.164 113.124 141.297 113.304 141.489Z" fill="#084FC7"/>
<path d="M98.9729 120.428C99.0479 120.132 99.243 119.881 99.5281 119.733C100.068 119.452 100.744 119.645 101.029 120.177L105.726 128.779C106.011 129.311 105.816 129.976 105.276 130.257C104.736 130.537 104.06 130.345 103.775 129.813L99.0779 121.211C98.9279 120.96 98.8978 120.679 98.9729 120.428Z" fill="#084FC7"/>
<path d="M132.485 201.377C131.855 201.924 131.255 202.412 130.699 202.855L129.409 199.604C129.304 199.338 129.304 199.072 129.409 198.82C129.514 198.54 129.739 198.303 130.039 198.185C130.609 197.963 131.255 198.244 131.48 198.806L132.485 201.377Z" fill="#084FC7"/>
<path d="M41.8407 184.824C41.6906 184.558 41.6606 184.248 41.7806 183.937C41.9907 183.376 42.621 183.08 43.1913 183.287L52.5258 186.598C53.0961 186.804 53.3962 187.425 53.1861 187.987C52.976 188.548 52.3457 188.844 51.7754 188.637L42.4409 185.326C42.1708 185.253 41.9607 185.06 41.8407 184.824Z" fill="#084FC7"/>
<path d="M46.4026 197.254C46.7027 197.254 47.0029 197.387 47.228 197.623C47.6332 198.067 47.5881 198.761 47.1379 199.16L39.7094 205.634C39.2591 206.033 38.5538 205.989 38.1486 205.545C37.7434 205.102 37.7884 204.407 38.2386 204.008L45.6672 197.534C45.8773 197.342 46.1475 197.254 46.4026 197.254Z" fill="#084FC7"/>
<path d="M59.8639 207.526C60.044 207.762 60.1491 208.073 60.089 208.383C59.984 208.974 59.4137 209.373 58.8134 209.27L49.0437 207.629C48.4434 207.526 48.0382 206.964 48.1433 206.373C48.2483 205.782 48.8186 205.383 49.4189 205.486L59.1886 207.127C59.4587 207.171 59.6989 207.319 59.8639 207.526Z" fill="#084FC7"/>
<path d="M68.044 116.097C67.9689 115.816 67.9989 115.491 68.179 115.225C68.5092 114.723 69.1995 114.575 69.7098 114.9L78.0388 120.191C78.549 120.516 78.6991 121.196 78.3689 121.699C78.0388 122.201 77.3484 122.349 76.8382 122.024L68.5092 116.733C68.2691 116.57 68.104 116.349 68.044 116.097Z" fill="#084FC7"/>
<path d="M124.89 122.334C125.16 122.187 125.475 122.157 125.79 122.26C126.361 122.467 126.661 123.088 126.466 123.65L123.149 132.858C122.939 133.419 122.309 133.715 121.738 133.523C121.168 133.316 120.868 132.695 121.063 132.133L124.38 122.926C124.47 122.674 124.665 122.467 124.89 122.334Z" fill="#084FC7"/>
<path d="M120.434 110.348L115.316 116.822C114.941 117.295 114.251 117.383 113.771 117.014C113.29 116.644 113.2 115.964 113.576 115.492L118.258 109.58C119.008 109.816 119.744 110.082 120.434 110.348Z" fill="#084FC7"/>
<path d="M70.3553 199.663C70.4603 199.973 70.7305 200.195 71.0306 200.254C71.1807 200.284 71.3458 200.284 71.4958 200.224C71.6609 200.165 87.7036 195.052 104.572 201.939C113.141 205.442 120.765 206.772 126.933 206.654C126.963 206.299 126.993 205.974 127.023 205.649C127.023 205.604 127.038 205.56 127.038 205.53C127.038 205.53 127.383 205.309 127.983 204.895C121.92 205.191 114.161 203.919 105.262 200.298C87.7487 193.145 71.6009 198.318 70.9256 198.54C70.4603 198.702 70.2052 199.205 70.3553 199.663Z" fill="#084FC7"/>
<path d="M108.938 106.624C106.822 109.846 102.47 113.496 93.6457 112.876C81.4749 112.004 73.461 100.564 70.6697 95.8639C71.0449 95.8491 71.255 95.8491 71.255 95.8491L108.938 106.624Z" fill="#084FC7"/>
<path d="M96.0011 127.848C96.3613 127.921 96.7214 127.966 97.0816 127.995C100.443 128.261 103.175 127.301 105.186 125.143C111.038 118.847 108.637 104.481 108.532 103.875C108.442 103.387 107.977 103.062 107.497 103.15C107.001 103.239 106.671 103.697 106.761 104.17C106.791 104.318 109.117 118.285 103.865 123.946C102.229 125.704 100.053 126.458 97.2467 126.236C85.451 125.305 72.2296 95.79 72.0946 95.4944C71.8995 95.051 71.3592 94.8441 70.909 95.0362C70.4588 95.2283 70.2487 95.7604 70.4438 96.2038C70.954 97.4305 83.5001 125.35 96.0011 127.848Z" fill="white"/>
<path d="M132.739 116.245C131.959 124.758 134.09 138.814 139.673 148.923C139.538 146.751 139.478 144.549 139.508 142.361C139.508 142.287 139.508 142.213 139.508 142.139C139.508 141.918 139.523 141.696 139.523 141.474C139.718 128.572 140.993 122.024 132.739 116.245Z" fill="#EA9B7A"/>
<path d="M63.3905 131.232C59.0684 147.667 43.2508 160.851 32.4456 156.742C32.3105 155.826 32.1904 154.895 32.0554 153.978C31.9653 153.372 31.8753 152.781 31.7702 152.175C31.0799 147.712 30.2695 143.233 29.3541 138.888C25.3471 119.94 28.1685 100.061 47.6629 97.7112C49.0736 97.5339 50.4692 97.3861 51.8349 97.2383C61.5746 101.332 68.3729 112.314 63.3905 131.232Z" fill="#EA9B7A"/>
<path d="M65.6122 118.699L90.9444 209.95L81.9101 199.692C85.2567 201.436 89.1286 202.796 93.4206 203.742C97.6977 204.688 102.38 205.235 107.257 205.486C112.15 205.737 117.237 205.693 122.445 205.486C127.652 205.279 132.98 204.895 138.382 204.437H138.412C146.381 203.772 153.389 209.58 154.065 217.428C154.71 224.907 149.323 231.543 141.909 232.725C136.341 233.597 130.669 234.425 124.861 235.09C119.053 235.755 113.095 236.243 106.912 236.391C100.744 236.524 94.3511 236.302 87.7479 235.356C81.1597 234.41 74.3164 232.725 67.6232 229.873C63.3461 228.055 60.2997 224.596 58.919 220.561L58.6039 219.616L28.1992 129.872C24.7776 119.792 30.3153 108.885 40.5502 105.515C50.7851 102.145 61.8604 107.599 65.2821 117.679C65.4171 118.004 65.5222 118.388 65.6122 118.699Z" fill="#EA9B7A"/>
<path d="M76.9576 207.038C76.7024 207.038 76.4473 206.905 76.3122 206.669C76.1021 206.314 76.2372 205.871 76.5974 205.664C76.8375 205.531 82.3752 202.456 88.168 202.013C88.5882 201.983 88.9483 202.279 88.9783 202.693C89.0084 203.107 88.7082 203.461 88.288 203.491C82.8404 203.905 77.3928 206.92 77.3477 206.949C77.2127 207.009 77.0776 207.038 76.9576 207.038Z" fill="#D96C63"/>
<path d="M86.1725 203.742C86.0374 203.742 85.9024 203.712 85.7823 203.639C82.2856 201.555 78.0536 201.229 78.0085 201.229C77.5883 201.2 77.2882 200.845 77.3182 200.446C77.3482 200.032 77.6934 199.737 78.1136 199.766C78.2937 199.781 82.7508 200.106 86.5477 202.382C86.9078 202.589 87.0129 203.047 86.8028 203.402C86.6677 203.609 86.4126 203.742 86.1725 203.742Z" fill="#D96C63"/>
<path d="M108.758 155.648C119.968 157.88 124.875 146.47 124.92 146.352C125.116 145.894 124.89 145.376 124.425 145.199C123.96 145.007 123.435 145.228 123.255 145.687C123.075 146.115 118.843 155.855 109.118 153.919C98.8979 151.879 79.8388 132.089 79.6587 131.882C79.3135 131.528 78.7432 131.513 78.3831 131.853C78.0229 132.193 78.0079 132.754 78.353 133.109C79.1334 133.922 97.9975 153.49 108.758 155.648Z" fill="#084FC7"/>
<path d="M91.1398 83.774C91.1398 83.774 73.1461 80.4337 68.0737 62.5501C63.2413 45.5237 66.9631 36.6853 71.9905 27.4922C75.7724 20.5604 87.7781 11.2048 104.601 14.5598C121.589 17.9444 134.301 26.5463 136.176 40.3064C139.673 66.0529 118.588 97.4601 91.1398 83.774Z" fill="#39393B"/>
<path d="M68.9136 65.3136C68.5835 65.3136 68.2683 65.151 68.1032 64.8406C67.7731 64.279 60.2094 50.8737 66.4975 33.2265C70.4293 22.2007 78.1581 17.279 83.9659 15.0768C90.2389 12.6973 95.5064 12.9337 95.7315 12.9337C96.2418 12.9633 96.6469 13.3919 96.6169 13.9092C96.5869 14.4117 96.1667 14.8108 95.6415 14.7812C95.5965 14.7812 90.479 14.5743 84.5661 16.8208C76.7024 19.8212 71.2247 25.541 68.2683 33.8325C62.2804 50.652 69.664 63.7913 69.739 63.9243C69.9941 64.3677 69.8441 64.9293 69.3938 65.1806C69.2288 65.2693 69.0787 65.3136 68.9136 65.3136Z" fill="#FAAF3A"/>
<path d="M126.031 65.5946C126.031 65.5946 131.884 61.0424 133.43 67.0726C134.975 73.1028 130.623 83.8182 123.81 80.5666L126.031 65.5946Z" fill="#D96C63"/>
<path d="M120.312 76.6798C117.401 77.6257 114.835 80.1678 114.174 83.3159C113.214 88.0159 116.305 92.5977 121.063 93.5584C125.835 94.5043 130.487 91.4596 131.463 86.7744C132.183 83.2568 130.637 79.7983 127.801 77.8917C126.856 77.2414 125.76 76.7832 124.559 76.5468C124.529 76.5468 124.499 76.532 124.469 76.532C124.304 77.1232 124.364 77.5961 124.71 77.9656C125.67 78.2169 126.54 78.6455 127.306 79.2071C129.512 80.8625 130.697 83.6559 130.112 86.5084C129.302 90.4694 125.355 93.0411 121.333 92.243C117.311 91.4449 114.7 87.5578 115.51 83.5968C116.11 80.7147 118.271 78.6751 120.988 78.0247L120.312 76.6798Z" fill="#FAAF3A"/>
<path d="M108.292 91.4448L105.846 106.55C105.846 106.55 94.365 118.093 73.3999 97.3863C79.0276 93.2627 81.1736 83.6853 80.5133 77.5073C80.5133 77.5073 82.1641 78.4828 84.7153 80.7589C85.2106 81.2023 85.8559 81.5422 86.4712 81.9709C92.0088 85.6658 100.503 90.4988 108.292 91.4448Z" fill="#EA9B7A"/>
<path d="M108.293 91.4448L107.137 98.5982C100.849 95.8344 89.7287 89.9372 84.7163 80.7441C85.2566 81.1284 85.8569 81.5275 86.4722 81.9561C92.0098 85.6658 100.504 90.4989 108.293 91.4448Z" fill="#39393B"/>
<path d="M131.704 61.9589C131.374 63.5551 131.074 65.0774 130.759 66.5259C130.429 68.0925 130.114 69.5705 129.798 70.9598C127.472 81.4092 125.566 87.0108 122.475 89.1095C106.822 99.7067 81.3551 78.2463 80.5297 77.5516C80.5147 77.5369 80.5147 77.5369 80.5147 77.5369C80.4997 76.3101 80.4997 75.0834 80.5147 73.8862C80.7098 63.7177 82.4656 54.5837 85.257 46.1444C86.6526 36.9218 93.9161 29.5319 103.266 28.1425C112.96 26.7089 120.254 32.2366 124.816 34.6752C131.704 38.3702 134.406 48.6422 131.704 61.9589Z" fill="#EA9B7A"/>
<path d="M85.797 36.6556C85.797 36.6556 96.7522 15.9047 118.603 21.6984C140.453 27.4921 141.609 37.4833 141.999 42.4789C142.389 47.4745 130.684 38.6213 130.684 38.6213C130.684 38.6213 130.278 48.6125 126.376 45.5383C121.589 41.7547 116.247 33.6109 116.247 33.6109C116.247 33.6109 103.235 46.2034 90.8694 42.804C83.831 40.8826 85.797 36.6556 85.797 36.6556Z" fill="#39393B"/>
<path d="M112.63 82.311C109.793 82.311 107.842 80.3748 107.752 80.2714C107.452 79.961 107.452 79.4732 107.767 79.1777C108.082 78.8821 108.563 78.882 108.863 79.1924C108.968 79.2959 111.219 81.4981 114.19 80.4931C114.596 80.36 115.046 80.567 115.181 80.966C115.316 81.3651 115.106 81.8085 114.701 81.9415C113.98 82.2075 113.29 82.311 112.63 82.311Z" fill="#D96C63"/>
<path d="M106.101 69.748C106.101 69.748 116.636 72.8223 122.099 72.8223C122.099 72.8223 119.367 80.5078 111.564 77.8179C105.486 75.7191 106.101 69.748 106.101 69.748Z" fill="white"/>
<path d="M125.655 48.1399C125.655 48.1399 122.924 47.8591 123.359 50.4751C123.809 53.0911 129.737 51.4949 132.678 56.727C132.678 56.727 135.515 51.2436 125.655 48.1399Z" fill="#39393B"/>
<path d="M113.485 45.7156C113.485 45.7156 116.111 46.5138 114.671 48.7455C113.23 50.9773 108.398 47.238 103.625 50.9329C103.625 50.9329 103.19 44.7993 113.485 45.7156Z" fill="#39393B"/>
<path d="M108.743 64.442C108.488 65.6687 105.712 66.1564 102.515 65.5209C99.3335 64.8854 96.9624 63.3778 97.2175 62.1363C97.4727 60.9096 100.249 60.4219 103.446 61.0574C106.627 61.6929 108.998 63.2153 108.743 64.442Z" fill="#D96C63"/>
<path d="M139.837 65.2547L131.328 63.821C131.283 64.1758 131.193 64.5305 131.118 64.8704C131.103 64.9295 131.088 64.9887 131.058 65.0478L139.627 66.4814C139.972 66.5405 140.303 66.3041 140.363 65.9641C140.423 65.639 140.197 65.3138 139.837 65.2547Z" fill="white"/>
<path d="M117.117 58.1011C117.117 57.6725 117.102 57.2439 117.042 56.8301C116.757 54.554 115.736 52.4552 114.176 50.8294C112.735 49.3367 110.859 48.243 108.683 47.77C108.653 47.7552 108.608 47.7552 108.578 47.7404C103.596 46.7354 98.6882 49.3071 96.6623 53.682C96.4822 54.0662 96.3321 54.4505 96.197 54.8496C96.077 55.2043 95.9869 55.5738 95.8969 55.9433C95.3266 58.6923 95.8819 61.4118 97.2775 63.6288C97.7578 64.3826 98.328 65.0772 98.9734 65.6832C100.384 67.0282 102.17 68.0036 104.226 68.4175C107.693 69.1269 111.099 68.0923 113.545 65.9345C115.196 64.486 116.412 62.5055 116.892 60.2147C116.892 60.1999 116.892 60.1999 116.892 60.1851C117.042 59.4904 117.117 58.7958 117.117 58.1011ZM104.496 67.1908C104.436 67.176 104.391 67.176 104.346 67.1612C101.66 66.57 99.4836 64.8851 98.208 62.6829C97.1125 60.7763 96.6772 58.5002 97.1575 56.1945C97.2625 55.7216 97.3976 55.2634 97.5627 54.82C97.5777 54.7904 97.5927 54.7609 97.5927 54.7313C98.9283 51.3172 102.185 48.9967 105.847 48.7898C106.657 48.7455 107.482 48.7898 108.323 48.9672C110.124 49.3367 111.684 50.1791 112.93 51.3467C115.211 53.4898 116.352 56.7118 115.676 59.9634C114.596 64.9886 109.598 68.2401 104.496 67.1908Z" fill="white"/>
<path d="M136.191 53.7855C135.906 53.6377 135.605 53.5046 135.29 53.3716C134.93 53.2238 134.555 53.1056 134.18 52.9873C133.91 52.9134 133.655 52.8395 133.369 52.7952C132.859 52.6917 132.364 52.6326 131.869 52.6031C131.268 52.5587 130.668 52.5735 130.083 52.6474C128.447 52.8248 126.901 53.3568 125.536 54.1993C124.035 55.1156 122.759 56.4015 121.889 57.9534C121.649 58.3524 121.454 58.7663 121.274 59.1801C121.259 59.2097 121.259 59.2244 121.244 59.254C121.018 59.8156 120.838 60.4068 120.703 61.0128C119.848 65.0921 121.514 69.1122 124.65 71.5065C125.671 72.2898 126.841 72.8958 128.132 73.2653C128.327 73.3244 128.522 73.3836 128.732 73.4131C128.837 73.4427 128.927 73.4574 129.032 73.487C130.068 73.6939 131.103 73.7531 132.109 73.6644C132.274 73.6496 132.439 73.6348 132.589 73.62C133.024 73.5609 133.459 73.487 133.895 73.3688C134.69 73.1619 135.47 72.8663 136.191 72.4968C138.937 71.0779 141.038 68.5062 141.713 65.2842C142.689 60.5546 140.303 55.9138 136.191 53.7855ZM140.453 65.0181C140.408 65.2251 140.363 65.4172 140.303 65.6094C140.228 65.8902 140.138 66.1562 140.033 66.437C139.282 68.4027 137.902 69.999 136.161 71.0483C135.53 71.4326 134.84 71.743 134.12 71.9795C133.67 72.1273 133.219 72.2307 132.739 72.3046C132.604 72.3342 132.469 72.349 132.334 72.3637C131.343 72.482 130.308 72.4524 129.272 72.2455C129.182 72.2307 129.077 72.2012 128.987 72.1864C128.927 72.1716 128.867 72.1568 128.822 72.1421C127.307 71.7578 125.956 71.0188 124.86 70.0285C124.695 69.8807 124.545 69.7329 124.395 69.5851C122.309 67.4568 121.289 64.3678 121.934 61.2493C122.084 60.5546 122.309 59.8748 122.594 59.254C123.54 57.2144 125.19 55.6329 127.186 54.7018C128.417 54.1254 129.783 53.815 131.193 53.815C131.418 53.815 131.644 53.8298 131.884 53.8446C132.289 53.8741 132.694 53.9333 133.099 54.0071C133.399 54.0663 133.685 54.1402 133.97 54.2288C134.36 54.3471 134.735 54.4949 135.11 54.6575C135.395 54.7905 135.681 54.9383 135.966 55.0861C139.372 57.0518 141.293 60.998 140.453 65.0181Z" fill="white"/>
<path d="M83.0952 55.5887C83.0201 55.5739 82.9451 55.5443 82.8851 55.5C82.5849 55.3079 82.5099 54.9236 82.69 54.6428C86.952 48.0805 97.202 53.9777 97.292 54.0368C97.5921 54.2142 97.6972 54.5985 97.5171 54.8941C97.337 55.1896 96.9468 55.2931 96.6467 55.1157C96.5566 55.0566 87.3572 49.7802 83.7555 55.3227C83.6204 55.5296 83.3503 55.633 83.0952 55.5887Z" fill="white"/>
<path d="M121.725 59.5351C121.56 59.5055 121.424 59.402 121.319 59.269C119.954 57.1998 117.042 58.131 117.012 58.131C116.682 58.2344 116.322 58.0571 116.217 57.7319C116.112 57.4068 116.292 57.052 116.622 56.9486C117.958 56.5052 120.884 56.2835 122.4 58.5892C122.595 58.8848 122.505 59.269 122.205 59.4464C122.055 59.535 121.89 59.5646 121.725 59.5351Z" fill="white"/>
<g opacity="0.8">
<g opacity="0.8">
<g opacity="0.8">
<g opacity="0.8">
<g opacity="0.8">
<g opacity="0.8">
<g opacity="0.8">
<path opacity="0.8" d="M130.758 66.5259C130.428 68.0926 130.113 69.5706 129.798 70.9599C126.901 70.2652 124.815 68.8611 125.055 67.6935C125.311 66.5407 127.802 66.0382 130.758 66.5259Z" fill="#D96C63"/>
</g>
</g>
</g>
</g>
</g>
</g>
</g>
<path d="M110.978 58.2491C110.633 59.9488 109.567 61.1608 108.607 60.9686C107.646 60.7765 107.151 59.2541 107.496 57.5545C107.841 55.8548 108.907 54.6428 109.867 54.835C110.828 55.0271 111.323 56.5494 110.978 58.2491Z" fill="#39393B"/>
<path d="M127.995 61.6485C127.65 63.3482 126.585 64.5602 125.624 64.368C124.664 64.1759 124.168 62.6536 124.514 60.9539C124.859 59.2542 125.924 58.0422 126.885 58.2344C127.845 58.4265 128.34 59.9488 127.995 61.6485Z" fill="#39393B"/>
<path d="M119.202 66.2006C120.028 66.3632 120.613 66.3336 120.658 66.3336C120.853 66.3188 121.048 66.2301 121.183 66.0823C121.318 65.9345 121.363 65.7276 121.348 65.5355L120.253 57.6283C120.193 57.244 119.832 56.9632 119.442 57.0223C119.052 57.0814 118.767 57.4361 118.827 57.8204L119.802 64.8704C119.082 64.7669 118.002 64.4713 117.026 63.6732C116.726 63.422 116.261 63.4663 116.006 63.7619C115.751 64.0575 115.796 64.5157 116.096 64.7669C117.161 65.6242 118.317 66.0232 119.202 66.2006Z" fill="#39393B"/>
<path d="M87.5519 71.7876C87.4319 71.965 84.1003 76.6797 80.5436 77.537C80.5286 77.5222 80.5286 77.5222 80.5286 77.5222C80.4985 76.2955 80.5136 75.0687 80.5286 73.8716C80.6486 73.8863 84.0402 73.975 87.5519 71.7876Z" fill="#39393B"/>
<path d="M86.8171 59.4018C86.8171 59.4018 81.8047 48.9377 75.3066 55.0713C69.949 60.1408 74.6312 77.049 83.9357 73.4279L86.8171 59.4018Z" fill="#EA9B7A"/>
<path d="M74.4962 68.4325C71.5848 69.3784 69.0186 71.9205 68.3583 75.0686C67.3978 79.7686 70.4893 84.3504 75.2466 85.3111C80.0189 86.257 84.6711 83.2123 85.6466 78.5271C86.3669 75.0095 84.8212 71.551 81.9848 69.6444C81.0394 68.9941 79.9439 68.5359 78.7433 68.2994C78.7133 68.2994 78.6833 68.2847 78.6532 68.2847C78.4882 68.8759 78.5632 69.3488 78.8933 69.7183C79.8538 69.9696 80.7242 70.3982 81.4896 70.9598C83.6957 72.6152 84.8812 75.4086 84.296 78.2611C83.4856 82.2221 79.5387 84.7938 75.5167 83.9957C71.4948 83.1975 68.8835 79.3105 69.6939 75.3494C70.2792 72.4674 72.4553 70.4277 75.1716 69.7774L74.4962 68.4325Z" fill="#FAAF3A"/>
<path d="M83.5453 70.5165C83.5753 70.5165 83.5903 70.5313 83.6203 70.5313C84.0105 70.5609 84.3707 70.2801 84.4007 69.881C85.136 61.9738 79.0732 57.9684 78.818 57.8058C78.4879 57.5841 78.0376 57.6876 77.8125 58.0128C77.5874 58.3379 77.6925 58.7813 78.0226 59.003C78.2477 59.1508 83.6203 62.7275 82.96 69.7628C82.945 70.1175 83.2001 70.4426 83.5453 70.5165Z" fill="#39393B"/>
<path d="M77.8133 64.974C77.9633 65.0035 78.1434 64.9888 78.2935 64.9001C79.0138 64.5306 81.1299 63.7029 82.2854 64.2498C82.6456 64.4271 83.0808 64.2793 83.2459 63.9246C83.426 63.5699 83.2759 63.1413 82.9157 62.9787C80.9048 62.018 77.9633 63.4812 77.6332 63.6438C77.273 63.8212 77.1379 64.2498 77.333 64.6045C77.4231 64.7966 77.6182 64.9297 77.8133 64.974Z" fill="#39393B"/>
<path d="M93.2709 41.6515C93.2709 41.6515 86.5326 59.6682 86.1725 63.304C85.6772 68.2553 79.029 51.288 85.7072 36.8037L93.2709 41.6515Z" fill="#39393B"/>
<path d="M205.855 423.622H178.106C178.106 423.622 171.683 393.294 169.537 376.297C167.376 359.285 166.266 318.981 166.266 318.981C166.266 318.981 144.16 326.06 97.8777 323.385C-4.66664 317.488 34.2171 243.293 34.2171 243.293C37.6837 248.008 63.6762 254.496 78.1732 256.757C122.7 260.97 156.541 268.419 179.712 278.262C185.295 280.627 190.247 283.14 194.599 285.785C200.182 289.17 203.679 299.471 205.795 312.995C212.113 353.654 205.855 423.622 205.855 423.622Z" fill="#39393B"/>
<path d="M181.543 409.02C181.077 409.02 180.672 408.694 180.567 408.236C176.56 388.727 175.225 364.444 174.144 344.934C173.244 328.75 172.403 313.468 170.287 311.635C168.576 310.142 161.478 311.31 152.504 312.773C134.63 315.7 107.617 320.104 77.8427 313.29C61.6199 309.566 49.6892 301.806 42.3957 290.219C29.8046 270.237 35.5524 245.451 35.6124 245.2C35.7325 244.667 36.2727 244.342 36.813 244.475C37.3532 244.594 37.6834 245.126 37.5483 245.658C37.4883 245.894 31.9506 269.911 44.1065 289.199C51.1149 300.328 62.6254 307.792 78.3079 311.384C107.707 318.123 134.48 313.749 152.204 310.852C162.814 309.123 169.222 308.073 171.638 310.172C174.249 312.448 174.984 323.622 176.155 344.831C177.236 364.281 178.571 388.476 182.548 407.852C182.653 408.384 182.308 408.901 181.768 409.005C181.678 409.005 181.618 409.02 181.543 409.02Z" fill="#585859"/>
<path d="M206.381 409.522H206.366L175.511 408.872C174.955 408.857 174.52 408.414 174.535 407.867C174.55 407.32 175.001 406.891 175.556 406.906L206.411 407.556C206.966 407.571 207.401 408.015 207.386 408.561C207.356 409.108 206.921 409.522 206.381 409.522Z" fill="#585859"/>
<path d="M205.09 458.636H185.506L181.739 436.008L179.668 423.622H203.994L204.385 436.008L205.09 458.636Z" fill="#EA9B7A"/>
<path d="M205.089 458.636H185.505L182.698 441.787L181.738 436.008H204.384L204.564 441.993L205.089 458.636Z" fill="#FAAF3A"/>
<path d="M204.564 441.993L182.698 441.787L181.738 436.008H204.384L204.564 441.993Z" fill="#C77E2E"/>
<path d="M253.413 489.097H179.337C178.782 488.107 178.482 486.718 178.362 485.047C177.897 478.869 179.893 469.026 180.868 462.818C180.988 462.094 181.093 461.414 181.168 460.808C181.303 459.774 181.393 458.902 181.393 458.266C181.393 453.197 185.941 454.069 185.941 454.069C193.429 461.311 201.923 450.463 206.876 454.01C206.876 454.01 207.071 454.157 207.536 454.497C207.956 454.823 208.587 455.325 209.457 456.049C210.718 457.084 212.488 458.591 214.89 460.72C220.772 465.937 230.767 469.366 239.276 472.869C240.357 473.312 241.362 473.756 242.308 474.214C243.013 474.554 243.688 474.894 244.319 475.219C251.282 478.914 253.488 482.461 253.998 485.033C254.494 487.501 253.413 489.097 253.413 489.097Z" fill="#0875F7"/>
<path d="M244.333 475.234C242.427 476.726 238.18 479.727 234.773 479.727C234.623 479.727 234.473 479.727 234.323 479.712C231.922 479.52 223.098 475.248 215.909 471.361C211.797 469.129 208.031 466.942 205.329 465.183C200.902 462.301 200.122 461.208 199.957 460.439C199.311 457.557 204.144 455.562 207.535 454.512C207.956 454.837 208.586 455.34 209.456 456.064C205.254 457.187 201.788 458.961 201.953 459.966C202.373 460.823 206.755 464.104 217.23 469.765C225.229 474.081 232.808 477.554 234.488 477.702C236.769 477.879 240.116 475.84 242.307 474.229C243.042 474.554 243.703 474.894 244.333 475.234Z" fill="#084FC7"/>
<path d="M253.412 489.097H179.337C178.781 488.107 178.481 486.717 178.361 485.047H254.012C254.493 487.501 253.412 489.097 253.412 489.097Z" fill="#084FC7"/>
<path d="M186.902 489.097H184.696C186.887 486.629 188.943 482.83 188.673 477.421C188.312 470.208 183.93 465.361 180.869 462.818C180.989 462.094 181.094 461.414 181.169 460.808C184.456 463.277 189.993 468.701 190.428 477.332C190.699 482.505 188.973 486.363 186.902 489.097Z" fill="#084FC7"/>
<path d="M213.66 465.035C213.119 465.035 212.609 464.666 212.474 464.119C212.309 463.469 212.714 462.818 213.36 462.656L217.982 461.518C218.642 461.355 219.302 461.754 219.468 462.39C219.633 463.04 219.227 463.69 218.582 463.853L213.96 464.991C213.855 465.021 213.75 465.035 213.66 465.035Z" fill="white"/>
<path d="M209.052 461.237C208.497 461.237 208.002 460.868 207.867 460.321C207.702 459.67 208.107 459.02 208.752 458.857L213.374 457.719C214.035 457.557 214.695 457.956 214.86 458.591C215.025 459.242 214.62 459.892 213.975 460.055L209.352 461.193C209.247 461.222 209.157 461.237 209.052 461.237Z" fill="white"/>
<path d="M218.281 467.681C217.741 467.681 217.23 467.312 217.095 466.765C216.93 466.114 217.335 465.464 217.981 465.316L222.603 464.178C223.263 464.016 223.924 464.415 224.089 465.05C224.254 465.701 223.848 466.351 223.203 466.513L218.581 467.651C218.476 467.666 218.371 467.681 218.281 467.681Z" fill="white"/>
<path d="M222.904 470.223C222.364 470.223 221.853 469.854 221.718 469.307C221.553 468.657 221.958 468.006 222.604 467.858L227.226 466.72C227.886 466.558 228.547 466.957 228.712 467.592C228.877 468.243 228.472 468.893 227.826 469.056L223.204 470.194C223.099 470.208 223.009 470.223 222.904 470.223Z" fill="white"/>
<path d="M227.947 472.573C227.407 472.573 226.896 472.204 226.761 471.657C226.596 471.006 227.001 470.356 227.647 470.208L232.269 469.07C232.929 468.908 233.59 469.307 233.755 469.942C233.92 470.593 233.515 471.243 232.869 471.405L228.247 472.544C228.142 472.573 228.052 472.573 227.947 472.573Z" fill="white"/>
<path d="M233.423 474.583C232.868 474.583 232.373 474.214 232.238 473.667C232.073 473.017 232.478 472.366 233.123 472.204L237.745 471.066C238.406 470.903 239.066 471.302 239.231 471.938C239.396 472.588 238.991 473.238 238.346 473.401L233.724 474.539C233.618 474.568 233.513 474.583 233.423 474.583Z" fill="white"/>
</svg>
