<svg width="83" height="87" viewBox="0 0 83 87" fill="none" xmlns="http://www.w3.org/2000/svg">
  <path d="M41.28 61.8353C62.9737 61.8353 80.56 53.4992 80.56 43.2161C80.56 32.933 62.9737 24.5969 41.28 24.5969C19.5862 24.5969 2 32.933 2 43.2161C2 53.4992 19.5862 61.8353 41.28 61.8353Z" stroke="#FFD866" stroke-width="3" stroke-miterlimit="10" stroke-linecap="round" stroke-linejoin="round"/>
  <path d="M57.1645 52.9214C68.4452 34.3927 70.4702 15.0375 61.6874 9.69032C52.9046 4.34312 36.6399 15.0288 25.3592 33.5574C14.0784 52.086 12.0534 71.4412 20.8362 76.7884C29.619 82.1356 45.8837 71.45 57.1645 52.9214Z" stroke="#FFD866" stroke-width="3" stroke-miterlimit="10" stroke-linecap="round" stroke-linejoin="round"/>
  <path d="M61.6796 76.7801C70.4624 71.4329 68.4374 52.0777 57.1567 33.5491C45.8759 15.0205 29.6112 4.33485 20.8284 9.68205C12.0456 15.0293 14.0706 34.3844 25.3514 52.9131C36.6321 71.4417 52.8968 82.1273 61.6796 76.7801Z" stroke="#FFD866" stroke-width="3" stroke-miterlimit="10" stroke-linecap="round" stroke-linejoin="round"/>
  <path d="M41.2803 48.1447C44.0024 48.1447 46.2091 45.938 46.2091 43.2159C46.2091 40.4938 44.0024 38.2871 41.2803 38.2871C38.5583 38.2871 36.3516 40.4938 36.3516 43.2159C36.3516 45.938 38.5583 48.1447 41.2803 48.1447Z" stroke="#FFD866" stroke-width="3" stroke-miterlimit="10" stroke-linecap="round" stroke-linejoin="round"/>
</svg>