<svg xmlns="http://www.w3.org/2000/svg" width="169" height="177" viewBox="0 0 169 177" fill="none">
  <path fill-rule="evenodd" clip-rule="evenodd" d="M16.3628 68.6905C17.3393 69.6504 18.8912 69.6356 19.8592 68.6729C31.4622 57.5128 43.6793 51.8362 56.1359 51.6939C68.2653 51.5571 80.5192 56.8191 92.5417 67.2449C95.2141 69.5205 99.3449 74.2587 102.979 79.8529C99.9297 84.2385 97.898 89.432 96.8948 94.4355C95.4151 101.825 96.4925 108.62 98.9312 111.985C100.282 113.849 102.025 114.991 104.062 115.467C106.67 116.072 110.213 115.532 114.28 112.083C119.891 107.301 121.254 100.474 119.578 92.96C118.693 89.0101 116.906 84.8649 114.679 80.8815C117.255 78.825 120.461 77.6354 124.361 78.0637C132.618 78.9144 138.809 85.6942 143.212 93.6712C147.031 100.572 151.632 110.767 150.416 118.867C150.004 121.62 148.8 123.986 151.072 126.236C154.55 129.717 157.739 126.113 158.31 122.332C159.532 114.21 156.636 104.426 153.779 96.9332C148.535 83.1445 138.695 70.7428 125.408 69.0331C119.178 68.2602 113.893 69.9166 109.612 72.9942C105.548 67.3546 101.165 62.6886 98.289 60.3468C84.0596 48.9921 69.7389 43.7117 55.8831 44.5149C42.041 45.3101 28.6161 52.1063 16.3453 65.1941C15.3853 66.1706 15.3863 67.7305 16.3628 68.6905ZM108.657 90.8019C109.522 93.0935 110.105 95.345 110.277 97.4858C110.49 100.208 109.965 102.733 107.843 104.527C107.483 104.826 107.046 105.244 106.686 105.544C106.416 104.598 105.948 102.739 105.941 101.201C105.941 97.7674 106.722 93.6818 108.289 89.8767C108.436 90.1956 108.554 90.4948 108.657 90.8019Z" fill="#400101"/>
  <path fill-rule="evenodd" clip-rule="evenodd" d="M106.36 105.805C106.117 105.67 105.884 105.584 105.902 105.775C105.931 106.016 106.093 105.977 106.36 105.805Z" fill="#400101"/>
  <path fill-rule="evenodd" clip-rule="evenodd" d="M23.1611 63.2611C24.2917 60.7358 25.3841 58.0489 26.1635 55.4877C27.3624 51.491 27.8766 47.8346 26.8905 45.1728C26.5829 43.845 25.2441 43.0208 23.9243 43.3422C22.5965 43.6498 21.7723 44.9885 22.0937 46.3084C22.1617 46.9667 21.9321 47.65 21.7146 48.4181C21.2178 50.2287 20.1061 52.1189 18.8965 54.1574C17.3502 56.7575 15.4903 59.3551 13.9036 61.7582C12.4599 63.9319 11.2561 65.9487 10.4902 67.5475C9.28074 70.0633 9.21524 72.1756 9.48894 73.4128C9.56532 73.7359 12.247 78.5396 16.8333 76.6261C18.4729 75.9365 22.5364 73.9759 22.7371 73.8784C25.1784 72.5423 29.7132 70.1261 34.0322 68.8625C35.397 68.4601 36.7147 68.1032 37.9155 68.0525C37.9791 68.1626 38.0427 68.2728 38.12 68.375C39.2413 69.9673 41.4221 70.3422 43.0224 69.2346C43.9094 68.7042 45.0663 67.2101 45.3758 66.3154C45.9696 64.5774 45.3086 63.1782 43.6864 62.0219C41.4766 60.4522 38.28 60.003 34.6863 60.2971C30.9093 60.6235 26.63 61.9559 23.1611 63.2611ZM19.1721 71.3286C18.9043 71.8504 18.8133 72.2334 19.1746 72.3186C19.5793 72.4154 19.31 71.7264 19.1721 71.3286Z" fill="#400101"/>
</svg>