<svg width="94" height="117" viewBox="0 0 94 117" fill="none" xmlns="http://www.w3.org/2000/svg">
  <path d="M78.2906 106.642L45.8561 114.13L44.3976 107.807C44.0627 106.342 44.9699 104.884 46.4353 104.542L73.5664 98.2753C75.0318 97.9404 76.4902 98.8475 76.8321 100.313L78.2906 106.642Z" stroke="#FFD866" stroke-width="3" stroke-miterlimit="10" stroke-linecap="round"/>
  <path d="M67.6291 72.6433C81.9255 61.1162 84.1704 40.1822 72.6434 25.8858C61.1163 11.5895 40.1822 9.3445 25.8858 20.8716C11.5894 32.3987 9.34456 53.3327 20.8716 67.6291C32.3987 81.9254 53.3327 84.1704 67.6291 72.6433Z" stroke="#FFD866" stroke-width="3" stroke-miterlimit="10"/>
  <path d="M62.2324 76.1753L31.2213 17.3493L27.3485 10.2107C7.13275 20.8664 -0.613047 45.89 10.0426 66.1058C20.6983 86.3215 45.722 94.0673 65.9377 83.4116L62.1486 76.2241" stroke="#FFD866" stroke-width="3" stroke-miterlimit="10" stroke-linecap="round" stroke-linejoin="round"/>
  <path d="M38.0574 30.2394C48.21 24.8865 54.9147 17.6536 53.0327 14.0841C51.1508 10.5147 41.3948 11.9605 31.2422 17.3134C21.0897 22.6662 14.385 29.8992 16.267 33.4686C18.1489 37.0381 27.9048 35.5923 38.0574 30.2394Z" stroke="#FFD866" stroke-width="3" stroke-miterlimit="10"/>
  <path d="M40.4395 79.4063C47.606 80.7879 55.2751 79.8459 62.2323 76.1754C69.1896 72.5049 74.3045 66.713 77.2144 60.0209C70.0479 58.6393 62.3789 59.5813 55.4216 63.2518C48.4574 66.9224 43.3493 72.7142 40.4395 79.4063Z" stroke="#FFD866" stroke-width="3" stroke-miterlimit="10"/>
  <path d="M62.2593 76.1393C70.38 71.8577 70.0199 55.2178 61.455 38.973C52.89 22.7282 39.3635 13.0301 31.2428 17.3117C23.1222 21.5933 23.4824 38.2332 32.0473 54.478C40.6123 70.7228 54.1386 80.4209 62.2593 76.1393Z" stroke="#FFD866" stroke-width="3" stroke-miterlimit="10"/>
  <path d="M17.3145 62.2678L76.1403 31.2568" stroke="#FFD866" stroke-width="3" stroke-miterlimit="10"/>
  <path d="M56.3848 87.0334L59.818 101.353" stroke="#FFD866" stroke-width="3" stroke-miterlimit="10"/>
  <path d="M41.9609 115.463L83.3066 105.547" stroke="#FFD866" stroke-width="3" stroke-miterlimit="10" stroke-linecap="round"/>
</svg>