<svg width="94" height="96" viewBox="0 0 94 96" fill="none" xmlns="http://www.w3.org/2000/svg">
  <path d="M44.8418 80.2257L21.5358 72.3102C19.0731 71.4759 17.7583 68.7996 18.5926 66.3368C19.4268 63.8741 22.1031 62.5593 24.5592 63.3936L47.8652 71.3091C50.3279 72.1433 51.6428 74.8196 50.8085 77.2757C49.9742 79.7451 47.3046 81.0666 44.8418 80.2257Z" stroke="#FFD866" stroke-width="3" stroke-miterlimit="10"/>
  <path d="M41.7774 89.2491L18.4714 81.3336C16.0087 80.4993 14.6938 77.823 15.5281 75.3669C16.3624 72.9042 19.0387 71.5893 21.5014 72.4236L44.8074 80.3325C47.2702 81.1667 48.585 83.843 47.7507 86.3058C46.9098 88.7685 44.2401 90.0833 41.7774 89.2491Z" stroke="#FFD866" stroke-width="3" stroke-miterlimit="10"/>
  <path d="M21.0619 39.0531C21.0886 39.1331 21.1086 39.2066 21.1353 39.2867C21.6559 40.9485 24.726 51.4802 23.4446 63.1666L48.4458 71.4158C54.3724 61.2645 63.1088 54.6371 64.517 53.6093C64.5838 53.5626 64.6505 53.5159 64.7106 53.4692C65.3914 52.9819 66.0521 52.4613 66.6928 51.9074C70.457 48.6571 73.4203 44.379 75.0888 39.32C80.0076 24.4234 71.9186 8.35885 57.022 3.44004C42.1254 -1.47878 26.0608 6.61024 21.142 21.5068C19.4668 26.5725 19.3 31.7716 20.3945 36.6237C20.5814 37.438 20.8016 38.2522 21.0619 39.0531Z" stroke="#FFD866" stroke-width="3" stroke-miterlimit="10"/>
  <path d="M19.7461 81.8809C19.4658 86.8197 22.5092 91.5249 27.4347 93.1534C32.2934 94.7552 37.4659 92.8531 40.2156 88.8286L19.7461 81.8809Z" stroke="#FFD866" stroke-width="3" stroke-miterlimit="10"/>
  <path d="M31.2726 65.616L38.7009 43.1043C39.4351 40.8884 38.227 38.4991 36.0112 37.765C33.7954 37.0308 31.4061 38.2388 30.6719 40.4547C29.9378 42.6705 31.1458 45.0598 33.3616 45.7939L42.2782 48.7372" stroke="#FFD866" stroke-width="3" stroke-miterlimit="10"/>
  <path d="M41.0703 68.853L48.4986 46.3413C49.2327 44.1255 51.6221 42.9241 53.8379 43.6516C56.0537 44.3857 57.255 46.7751 56.5276 48.9909C55.7934 51.2067 53.4041 52.408 51.1883 51.6805L42.2716 48.7372" stroke="#FFD866" stroke-width="3" stroke-miterlimit="10"/>
  <path d="M80.3672 47.0754L87.8956 49.5649" stroke="#FFD866" stroke-width="3" stroke-miterlimit="10" stroke-linecap="round"/>
  <path d="M83.8184 37.5914L91.6604 36.4102" stroke="#FFD866" stroke-width="3" stroke-miterlimit="10" stroke-linecap="round"/>
  <path d="M75.1016 55.2112L80.6945 60.8308" stroke="#FFD866" stroke-width="3" stroke-miterlimit="10" stroke-linecap="round"/>
  <path d="M10.4427 23.9962L2.91431 21.5134" stroke="#FFD866" stroke-width="3" stroke-miterlimit="10" stroke-linecap="round"/>
  <path d="M13.3192 14.3188L7.72632 8.69922" stroke="#FFD866" stroke-width="3" stroke-miterlimit="10" stroke-linecap="round"/>
  <path d="M9.8354 33.667L2 34.8483" stroke="#FFD866" stroke-width="3" stroke-miterlimit="10" stroke-linecap="round"/>
</svg>