<svg xmlns="http://www.w3.org/2000/svg" width="30" height="38" viewBox="0 0 30 38" fill="none">
  <path d="M30.0003 11.0362L29.7578 11.1772L29.6372 11.1069L27.2731 9.72464L27.1524 9.65396L27.1518 9.65365L27.0312 9.58359H27.0306V9.58297L26.9094 9.51229L24.5458 8.13038L24.4252 8.05971L24.4246 8.05908L24.3034 7.98841L24.1821 7.91804L21.8186 6.53582L21.698 6.46514L21.6973 6.46452L21.5761 6.39416L21.4549 6.32348L19.0913 4.94157L18.9701 4.87089L18.8489 4.79959L18.7276 4.72923L16.3641 3.347L16.2428 3.27571L16.1216 3.20534L16.0004 3.13466L13.6365 1.75275L13.5153 1.68145L13.3944 1.75275L12.7901 2.10613L15.4197 3.64335L15.45 3.66133L18.1772 5.25558L20.8742 6.83217L20.9045 6.85014L23.602 8.42735L23.6323 8.44502L26.3293 10.0216L26.3596 10.0396L29.0568 11.6162L28.9962 11.6518L26.299 10.0752L26.2687 10.0572L23.5717 8.48067L23.5414 8.463L20.8439 6.88579L20.8136 6.86781L18.1166 5.29123L18.0863 5.27356L15.3894 3.69698L15.3591 3.679L12.7289 2.14178L11.8592 2.65047L14.4888 4.18768L14.5191 4.20566L17.2463 5.79991L19.9433 7.3765L19.9736 7.39448L22.6711 8.97106L22.702 8.98873L25.4287 10.5833L28.1259 12.1599L28.0653 12.1955L25.3684 10.6189L25.3381 10.601L22.6408 9.02438L22.6105 9.00671L19.9136 7.42951L19.8833 7.41153L17.1863 5.83494L17.156 5.81727L14.4591 4.24069L14.4288 4.22271L11.7992 2.6855L11.0305 3.13466L10.9289 3.19418L13.5888 4.74938L16.316 6.34363L19.0129 7.92052L19.0433 7.93819L21.7408 9.5154L21.7711 9.53306L24.4677 11.11L27.195 12.7042L27.1344 12.7399L24.4071 11.1453L21.7099 9.56871L21.6796 9.55104L18.9826 7.97384L18.9517 7.95586L16.2554 6.37928L16.2251 6.36161L13.5282 4.78502L13.4978 4.76705L10.8676 3.22983L10.7881 3.27571L10.7874 3.27633L10.6668 3.347L9.99795 3.73789L12.6585 5.29371L15.3554 6.87029L15.3857 6.88827L18.0826 8.46486L18.113 8.48253L20.8408 10.0771L23.5374 11.6537L26.2647 13.2479L26.2041 13.2836L20.7796 10.1124L20.7493 10.0948L18.0517 8.51817L18.0214 8.5002L15.3245 6.92361L12.5972 5.32936L12.5669 5.31138L9.93673 3.77416L9.06642 4.28285L11.7269 5.83804L14.4239 7.41463L14.4542 7.43261L17.1511 9.00919L17.1814 9.02686L19.879 10.6034L19.9093 10.6214L22.6065 12.198L25.3338 13.7923L25.2732 13.8279L19.8487 10.6568L19.8184 10.6391L17.1214 9.06189L17.0911 9.04422L14.3942 7.46732L14.3639 7.44966L11.6669 5.87307L9.00703 4.31788L8.30326 4.72923L10.6668 6.11052L10.7881 6.18182L10.9093 6.25218L11.0305 6.32348L13.3944 7.70508L13.5153 7.77607L13.6365 7.84675L13.7577 7.91804L16.1216 9.29996L16.2428 9.37063L16.3641 9.44162L16.4859 9.51229L18.8489 10.8945L18.9701 10.9649L19.0907 11.0362H19.0913L19.2125 11.1069H19.2132L21.5761 12.4888L21.6973 12.5594L21.8186 12.6307L21.9398 12.7011L24.3034 14.0833L24.4246 14.1537L24.5458 14.225L24.3034 14.3667L24.1821 14.2963L21.8186 12.9141L21.6973 12.8437L21.5761 12.7724L21.4543 12.7011L19.0913 11.3198L18.9701 11.2491L18.8489 11.1778H18.8483L18.727 11.1069L16.3641 9.72525L16.2428 9.65458L16.1216 9.58359H16.121L16.0004 9.51229L13.6365 8.131L13.5153 8.06033L13.515 8.05971L13.3944 7.98903L13.2732 7.91804L10.9093 6.53644L10.7881 6.46576L10.7874 6.46514L10.6668 6.39478L10.5456 6.32348L8.18203 4.94219L8.06081 4.87089L7.93958 4.80021L7.81836 4.72923L7.93958 4.65855H7.9402L8.06081 4.58725L8.18203 4.51689L10.5456 3.13466L10.6668 3.06399H10.6674L10.7881 2.993L10.9093 2.92232L13.2738 1.54041L13.3944 1.46973H13.395L13.5153 1.39844L13.6365 1.46911L13.7577 1.54041L16.1216 2.9217L16.2428 2.993L16.3641 3.06337L16.4853 3.13466L18.8489 4.51689L18.9701 4.58725L19.0907 4.65855H19.0913L19.2125 4.72923L21.5761 6.11114L21.6973 6.18182L21.8179 6.2528H21.8186L21.9398 6.32348L24.3034 7.7057L24.4246 7.77607L24.5452 7.84737H24.5458L24.667 7.91804L27.0306 9.29996L27.1518 9.37063L27.2731 9.44162L27.3943 9.51229L29.7578 10.8945L29.8791 10.9649L30.0003 11.0362Z" fill="#400101"/>
  <path d="M30.0003 11.0352V30.3106L29.879 30.381L29.7578 30.4523V11.1768L29.879 11.1065V11.1058H29.8797L30.0003 11.0352Z" fill="#400101"/>
  <path d="M5.21204 6.53516V15.9606L2.72725 17.4132L2.60602 17.4838L2.60541 17.4844L2.4848 17.5548L0 19.0077V9.58293L0.121225 9.51163L2.4848 8.12972L2.60602 8.05904L2.72663 7.98775H2.72725L2.84847 7.91738L5.21204 6.53516Z" fill="#400101"/>
  <path d="M21.5757 15.9611V22.0557L19.2121 20.6738L19.0909 20.6031L18.9697 20.5321L18.8485 20.4614L16.4849 19.0792L16.3637 19.0089L16.2425 18.9376L16.1212 18.8669L13.7574 17.485L13.6361 17.4143L13.5149 17.3436L13.5146 17.343L13.394 17.2726L11.0301 15.8904L10.9089 15.8194L10.7877 15.7487H10.787L10.6664 15.6781L8.30286 14.2962L8.18164 14.2249V8.13086L10.5452 9.51215L10.6664 9.58345L10.787 9.65382L10.7877 9.65444L10.9089 9.72511L13.2728 11.1067L13.394 11.1777L13.5149 11.249L13.6361 11.3197L15.9994 12.701H16L16.1212 12.7723L16.2425 12.8436L16.3637 12.9139L18.7266 14.2955L18.8485 14.3665L18.9697 14.4378L19.0909 14.5085L21.4545 15.8904L21.5757 15.9611Z" fill="#400101"/>
  <path d="M13.3941 30.3908V36.4857L11.0302 35.1035L10.909 35.0328L10.7878 34.9618L10.6665 34.8911L8.30296 33.5089L8.18174 33.4385L8.06051 33.3672L7.93929 33.2966L5.57571 31.9147L5.45449 31.844L5.33388 31.773H5.33326L5.21204 31.7023L2.84847 30.3201L2.72786 30.2497H2.72725V30.2491L2.60663 30.1784L2.60602 30.1778L2.4848 30.1078L0.121225 28.7258L0.000611909 28.6552H0V22.5605L2.36357 23.9425L2.4848 24.0131H2.48541L2.60602 24.0838L2.60663 24.0844L2.72725 24.1548L5.09082 25.537L5.21204 25.6074H5.21265L5.33326 25.6781L5.33388 25.6787L5.45449 25.7494L7.81867 27.1313L7.93929 27.202H7.9399L8.06051 27.2733L8.18174 27.3436L10.5459 28.7258L10.6665 28.7965H10.6671L10.7878 28.8675L10.909 28.9382L13.2735 30.3201L13.3941 30.3908Z" fill="#400101"/>
  <path d="M21.5753 25.5273V34.9528L21.4541 35.0234L19.0905 36.4053L18.9693 36.476L18.8481 36.547L18.7262 36.6183L16.3633 37.9999V28.5751L18.8481 27.1225V27.1219L18.9693 27.0512L19.0905 26.9806L21.5753 25.5273Z" fill="#400101"/>
  <path d="M21.5758 25.5274L19.091 26.9806L18.9698 27.0513L18.8486 27.1219V27.1226L16.3638 28.5752L16.2425 28.5039L16.1213 28.4332L13.7574 27.0513L13.6362 26.9806L13.515 26.9096L13.3941 26.8389L11.0302 25.4567L10.909 25.3863L10.7878 25.315L10.6665 25.2444L8.30296 23.8625L8.18174 23.7918L8.06051 23.7208L7.93928 23.6501L5.57571 22.2679L5.4551 22.1969H5.45449L5.33326 22.1262L5.21204 22.0549L2.84847 20.6736L2.72725 20.6023L2.60602 20.532L2.4848 20.4607L0.121225 19.0791L0 19.0081L2.4848 17.5552L2.60541 17.4848L2.60602 17.4842L2.72725 17.4135L5.21204 15.9609L5.33326 16.0316V16.0329L5.33388 16.0322L5.45449 16.1026L7.81806 17.4842L7.93928 17.5552L8.06051 17.6265L8.18174 17.6972L10.5453 19.0785L10.6665 19.1498H10.6671L10.7878 19.221L10.909 19.2914L13.2729 20.6736L13.3941 20.7443H13.3947L13.515 20.8153L13.6362 20.886L16.0001 22.2679L16.1213 22.3386L16.2425 22.4099L16.3638 22.4802L18.7273 23.8625L18.8486 23.9331L18.9698 24.0041L19.091 24.0748L21.4546 25.4567L21.5758 25.5274Z" fill="#400101"/>
  <path d="M24.5452 14.2246V33.5001L24.4246 33.5705L24.424 33.5711L24.3027 33.6418V14.3663L24.423 14.2959L24.4246 14.2953L24.5452 14.2246Z" fill="#400101"/>
  <path d="M25.3279 13.7967L25.3341 13.793V32.9265L25.2734 32.9621V13.8286L25.3279 13.7967Z" fill="#400101"/>
  <path d="M26.2585 13.2511L26.2637 13.248V32.3819L26.2031 32.4175V13.2837L26.2585 13.2511Z" fill="#400101"/>
  <path d="M27.1896 12.7068L27.1954 12.7031V31.837L27.1348 31.8723V12.7388L27.1896 12.7068Z" fill="#400101"/>
  <path d="M28.1192 12.1639L28.1251 12.1602V31.2946L28.0645 31.3293V12.1958L28.1192 12.1639Z" fill="#400101"/>
  <path d="M29.0515 11.6183L29.0567 11.6152V30.7481L28.9961 30.7838V11.6503L29.0515 11.6183Z" fill="#400101"/>
  <path d="M7.00342 4.23392C7.05485 4.24942 7.10903 4.22028 7.12434 4.16882L7.78158 1.98746C7.79689 1.936 7.76873 1.88082 7.7173 1.86563C7.66648 1.84982 7.6126 1.87896 7.5973 1.93042L6.94005 4.11178C6.92383 4.16386 6.95291 4.21842 7.00342 4.23423V4.23392Z" fill="#400101"/>
  <path d="M5.47332 1.44326L5.79384 2.77898C5.80608 2.83137 5.85843 2.86361 5.90985 2.85121C5.9619 2.83819 5.99404 2.78518 5.98088 2.73311L5.66128 1.39676C5.64904 1.34437 5.59669 1.31213 5.54434 1.32515C5.49292 1.33755 5.46108 1.39056 5.47332 1.44326Z" fill="#400101"/>
  <path d="M5.27847 0.629753C5.29164 0.68183 5.34307 0.714379 5.39541 0.701359C5.44684 0.68896 5.47868 0.635953 5.46643 0.583255L5.34429 0.0748799C5.33205 0.0224924 5.2797 -0.00974655 5.22827 0.00265285C5.17623 0.0156722 5.14409 0.0686796 5.15725 0.120757L5.27847 0.629753Z" fill="#400101"/>
  <path d="M7.76174 3.43291C7.80583 3.46329 7.86552 3.45306 7.89644 3.40842L8.13215 3.06589C8.16307 3.02156 8.15205 2.9608 8.10858 2.92949C8.0645 2.89911 8.00481 2.90934 7.97389 2.95398L7.73817 3.29652C7.70756 3.34084 7.71828 3.4016 7.76174 3.43291Z" fill="#400101"/>
  <path d="M5.81651 4.19957C5.841 4.24761 5.89917 4.2659 5.94662 4.24079C5.99406 4.21569 6.01213 4.15617 5.98702 4.10874L4.08417 0.450916C4.05968 0.402869 4.00151 0.384579 3.95407 0.409688C3.90662 0.434797 3.88856 0.494314 3.91366 0.541742L5.81651 4.19957Z" fill="#400101"/>
  <path d="M7.44055 4.51915C7.47606 4.55945 7.53728 4.56286 7.57647 4.52752L8.73882 3.47915C8.77892 3.44319 8.78229 3.3812 8.74678 3.34121C8.71126 3.30122 8.65004 3.2975 8.61086 3.33284L7.44851 4.38121C7.40841 4.41717 7.40504 4.47916 7.44055 4.51915Z" fill="#400101"/>
  <path d="M6.45513 4.13155C6.50808 4.13527 6.55431 4.09466 6.5586 4.04041L6.79951 0.516501C6.8038 0.462254 6.7637 0.415446 6.70982 0.412346C6.65686 0.408626 6.61064 0.449234 6.60727 0.502862L6.36543 4.02739C6.36206 4.08102 6.40217 4.12783 6.45513 4.13155Z" fill="#400101"/>
  <path d="M4.09445 5.99001C4.08129 5.93793 4.02894 5.9057 3.97721 5.91903L3.5771 6.02008C3.52506 6.03341 3.49414 6.08611 3.5067 6.1388C3.51986 6.19088 3.5722 6.22312 3.62394 6.20979L4.02404 6.10874C4.07608 6.09541 4.107 6.04271 4.09445 5.99001Z" fill="#400101"/>
  <path d="M5.21359 6.07421C5.1891 6.02616 5.13064 6.00756 5.08319 6.03267L3.70196 6.75896C3.65513 6.78345 3.63676 6.84235 3.66125 6.8904C3.68574 6.93844 3.74421 6.95704 3.79166 6.93193L5.17288 6.20564C5.21972 6.18115 5.23808 6.12225 5.21359 6.07421Z" fill="#400101"/>
  <path d="M5.10478 5.55759C5.10814 5.50396 5.06804 5.45716 5.01417 5.45406L2.76692 5.29906C2.71396 5.29534 2.66774 5.33595 2.66437 5.38958C2.66008 5.44383 2.7011 5.49001 2.75406 5.49373L5.00131 5.64873C5.05427 5.65245 5.10049 5.61184 5.10447 5.55759H5.10478Z" fill="#400101"/>
  <path d="M2.94116 3.14173C2.91055 3.18637 2.92157 3.24744 2.96565 3.27782L4.08484 4.05619C4.1283 4.08719 4.1883 4.07572 4.21892 4.03108C4.24861 3.98706 4.23759 3.92599 4.19351 3.89562L3.07494 3.11662C3.03086 3.08624 2.97055 3.09771 2.94086 3.14173H2.94116Z" fill="#400101"/>
  <path d="M5.35281 4.55242C5.38771 4.59334 5.44893 4.59706 5.48903 4.56141C5.52914 4.52576 5.53281 4.46407 5.4973 4.42377L2.79975 1.32051C2.76485 1.2796 2.70362 1.27588 2.66352 1.31152C2.62342 1.34717 2.61975 1.40886 2.65526 1.44916L5.35281 4.55242Z" fill="#400101"/>
  <path d="M5.20478 5.00241C5.22009 4.95095 5.19131 4.89639 5.1405 4.88058L1.80223 3.85391C1.75142 3.8381 1.69754 3.86724 1.68223 3.9187C1.66601 3.97078 1.69509 4.02533 1.74652 4.04052L5.08417 5.06781C5.1356 5.08331 5.18948 5.05386 5.20509 5.00241H5.20478Z" fill="#400101"/>
  <path d="M2.28396 2.80476C2.32804 2.83514 2.38743 2.82429 2.41804 2.77965C2.44865 2.73501 2.43671 2.67456 2.39355 2.64357L1.96712 2.34753C1.92365 2.31653 1.86365 2.328 1.83304 2.37264C1.80335 2.41666 1.81437 2.47772 1.85845 2.5081L2.28396 2.80476Z" fill="#400101"/>
</svg>