<svg xmlns="http://www.w3.org/2000/svg" width="24" height="24" viewBox="0 0 24 24" fill="none">
  <path d="M23.9412 5.17412C23.8415 4.67003 23.6166 4.19359 23.2884 3.79305C23.2218 3.70895 23.1521 3.63414 23.0759 3.55825C22.4921 2.97137 21.68 2.63477 20.8478 2.63477L3.15206 2.63477C2.31061 2.63477 1.51922 2.96289 0.923672 3.55858C0.848297 3.63377 0.778406 3.70933 0.709219 3.79609C0.3825 4.19495 0.158578 4.67073 0.0612187 5.17553C0.0205313 5.37377 0 5.57917 0 5.78697L0 18.2153C0 18.6476 0.0878438 19.0687 0.261984 19.4689C0.412688 19.8244 0.641344 20.1614 0.923484 20.4434C0.994547 20.5141 1.06514 20.5794 1.14052 20.643C1.70461 21.1101 2.41889 21.3672 3.15206 21.3672H20.8478C21.5858 21.3672 22.2993 21.1091 22.8619 20.6378C22.9371 20.577 23.0068 20.5131 23.0765 20.4434C23.3492 20.1709 23.566 19.8579 23.7218 19.5127L23.7423 19.4635C23.9132 19.0708 24 18.6512 24 18.2153V5.78697C24 5.58189 23.9802 5.37512 23.9412 5.17412ZM1.63233 4.64645C1.67691 4.5812 1.73381 4.51422 1.80642 4.44105C2.16684 4.08081 2.64483 3.88258 3.15202 3.88258H20.8478C21.3594 3.88258 21.8376 4.08114 22.194 4.44175C22.2555 4.50395 22.3143 4.573 22.3656 4.642L22.5009 4.82387L13.0556 13.0559C12.7644 13.3112 12.3895 13.4516 11.9999 13.4516C11.614 13.4516 11.2395 13.3115 10.9448 13.0562L1.50891 4.82622L1.63233 4.64645ZM1.25414 18.325C1.24903 18.2912 1.24786 18.2536 1.24786 18.2153L1.24786 6.04431L8.5777 12.4386L1.32183 18.7649L1.25414 18.325ZM21.7921 19.8685C21.5085 20.0321 21.1817 20.119 20.8478 20.119H3.15206C2.81798 20.119 2.49141 20.0321 2.20791 19.8685L1.91128 19.6965L9.40828 13.1631L10.2299 13.8778C10.7228 14.3057 11.3512 14.5415 12 14.5415C12.651 14.5415 13.2806 14.3057 13.7731 13.8778L14.5944 13.1628L22.0888 19.6969L21.7921 19.8685ZM22.7518 18.2153C22.7518 18.2529 22.7511 18.2901 22.7464 18.3233L22.6814 18.7673L15.4224 12.442L22.7518 6.04741V18.2153Z" fill="white"/>
</svg>