<svg xmlns="http://www.w3.org/2000/svg" width="18" height="18" viewBox="0 0 18 18" fill="none">
  <path d="M9 9.61133C11.0025 9.61133 15 10.5576 15 12.4365V13.8496C14.9997 14.2379 14.6623 14.5557 14.25 14.5557H3.75C3.33766 14.5557 3.00027 14.2379 3 13.8496V12.4365C3 10.5576 6.9975 9.61133 9 9.61133ZM9 10.9531C6.7725 10.9531 4.4248 11.9845 4.4248 12.4365V13.2139H13.5752V12.4365C13.5752 11.9845 11.2275 10.9531 9 10.9531ZM9 3.25391C10.6574 3.25391 11.9999 4.51816 12 6.0791C12 7.64013 10.6575 8.9043 9 8.9043C7.3425 8.9043 6 7.64013 6 6.0791C6.00012 4.51816 7.34257 3.25391 9 3.25391ZM9 4.5957C8.13007 4.5957 7.42492 5.25983 7.4248 6.0791C7.4248 6.89847 8.13 7.5625 9 7.5625C9.87 7.5625 10.5752 6.89847 10.5752 6.0791C10.5751 5.25983 9.86993 4.5957 9 4.5957Z" fill="#1B1B1B" fill-opacity="0.6"/>
</svg>