<svg xmlns="http://www.w3.org/2000/svg" width="24" height="24" viewBox="0 0 24 24" fill="none">
  <g clip-path="url(#clip0_53_1485)">
    <path fill-rule="evenodd" clip-rule="evenodd" d="M10.6761 0.203125C8.56483 0.203793 6.50115 0.830473 4.746 2.00393C2.99085 3.17738 1.62306 4.84491 0.815572 6.79568C0.00808077 8.74644 -0.20285 10.8928 0.209451 12.9635C0.621752 15.0341 1.63877 16.936 3.13191 18.4287C4.62505 19.9213 6.52726 20.9378 8.59803 21.3494C10.6688 21.761 12.8151 21.5494 14.7656 20.7413C16.7162 19.9332 18.3832 18.5649 19.5561 16.8094C20.729 15.0539 21.3551 12.99 21.3551 10.8787C21.3537 8.04719 20.2281 5.33208 18.2256 3.33022C16.2231 1.32835 13.5076 0.203572 10.6761 0.203125ZM10.6761 1.8919C12.4535 1.8919 14.191 2.41896 15.6689 3.40645C17.1468 4.39393 18.2987 5.79748 18.9788 7.4396C19.659 9.08173 19.837 10.8887 19.4902 12.6319C19.1435 14.3752 18.2876 15.9765 17.0307 17.2333C15.7739 18.4902 14.1726 19.3461 12.4294 19.6928C10.6861 20.0396 8.87914 19.8616 7.23701 19.1814C5.59489 18.5012 4.19134 17.3494 3.20386 15.8715C2.21637 14.3936 1.68931 12.6561 1.68931 10.8787C1.69043 8.4956 2.63761 6.21042 4.32272 4.52531C6.00783 2.8402 8.29301 1.89302 10.6761 1.8919Z" fill="white"/>
    <path fill-rule="evenodd" clip-rule="evenodd" d="M23.7531 22.3609L18.4537 17.0615C18.3758 16.9808 18.2826 16.9165 18.1796 16.8723C18.0766 16.828 17.9658 16.8047 17.8537 16.8037C17.7416 16.8028 17.6304 16.8241 17.5266 16.8666C17.4228 16.909 17.3286 16.9717 17.2493 17.051C17.17 17.1303 17.1073 17.2246 17.0648 17.3284C17.0224 17.4321 17.001 17.5433 17.002 17.6554C17.003 17.7676 17.0263 17.8784 17.0705 17.9814C17.1148 18.0844 17.1791 18.1776 17.2597 18.2555L22.5591 23.5523C22.637 23.6329 22.7302 23.6973 22.8332 23.7415C22.9362 23.7858 23.047 23.8091 23.1591 23.81C23.2712 23.811 23.3824 23.7897 23.4862 23.7472C23.59 23.7047 23.6843 23.642 23.7635 23.5628C23.8428 23.4835 23.9055 23.3892 23.948 23.2854C23.9904 23.1817 24.0118 23.0705 24.0108 22.9583C24.0098 22.8462 23.9865 22.7354 23.9423 22.6324C23.898 22.5294 23.8337 22.4362 23.7531 22.3583V22.3609Z" fill="white"/>
  </g>
  <defs>
    <clipPath id="clip0_53_1485">
      <rect width="24" height="24" fill="white"/>
    </clipPath>
  </defs>
</svg>