<svg xmlns="http://www.w3.org/2000/svg" width="27" height="24" viewBox="0 0 27 24" fill="none">
  <path d="M18.5781 14.0602C18.2943 13.9289 16.8802 13.3055 16.6172 13.2211C16.3542 13.132 16.1615 13.0898 15.9714 13.3523C15.7786 13.6125 15.2318 14.1914 15.0599 14.3672C14.8932 14.5406 14.724 14.5617 14.4401 14.4328C12.7526 13.6734 11.6458 13.0781 10.5339 11.3602C10.2396 10.9031 10.8281 10.9359 11.3776 9.94922C11.4714 9.77578 11.4245 9.62813 11.3516 9.49688C11.2786 9.36563 10.7057 8.09531 10.4661 7.57734C10.2344 7.07344 9.99479 7.14375 9.82031 7.13437C9.65365 7.125 9.46354 7.125 9.27083 7.125C9.07812 7.125 8.76823 7.19063 8.50521 7.44609C8.24219 7.70625 7.5 8.33203 7.5 9.60234C7.5 10.8727 8.52865 12.1031 8.66927 12.2766C8.8151 12.45 10.6927 15.0563 13.5755 16.1789C15.3984 16.8867 16.112 16.9477 17.0234 16.8258C17.5781 16.7508 18.7214 16.2023 18.9583 15.5953C19.1953 14.9906 19.1953 14.4727 19.125 14.3648C19.0547 14.25 18.862 14.1844 18.5781 14.0602Z" fill="white"/>
  <path d="M24.0913 7.93125C23.5028 6.67266 22.659 5.54297 21.5835 4.57266C20.508 3.60469 19.2528 2.84297 17.8517 2.31563C16.4194 1.77422 14.8986 1.5 13.3309 1.5H13.2788C11.7007 1.50703 10.172 1.78828 8.73452 2.34141C7.3465 2.87578 6.10171 3.63516 5.03661 4.60312C3.9715 5.57109 3.13556 6.69609 2.55744 7.95C1.95848 9.24844 1.6564 10.6289 1.66421 12.0492C1.67202 13.6758 2.10431 15.2906 2.91421 16.7344V20.2969C2.91421 20.8922 3.45067 21.375 4.11213 21.375H8.07306C9.67723 22.1039 11.4715 22.493 13.2788 22.5H13.3335C14.8934 22.5 16.4064 22.2281 17.8309 21.6961C19.2241 21.1734 20.4767 20.4234 21.5496 19.4648C22.6251 18.5063 23.4715 17.3859 24.0626 16.1367C24.6772 14.843 24.9897 13.4672 24.9975 12.0469C25.0054 10.6195 24.6981 9.23438 24.0913 7.93125ZM20.1564 18.1969C18.3309 19.8234 15.909 20.7188 13.3309 20.7188H13.2866C11.7163 20.7117 10.1564 20.3602 8.77879 19.6992L8.56004 19.5938H4.89338V16.2938L4.77619 16.0969C4.04181 14.857 3.65119 13.4531 3.64338 12.0398C3.63296 9.70312 4.62515 7.50937 6.44546 5.85703C8.26317 4.20469 10.6929 3.29062 13.2892 3.28125H13.3335C14.6356 3.28125 15.8986 3.50859 17.0887 3.95859C18.2501 4.39687 19.2918 5.02734 20.1876 5.83359C21.0809 6.6375 21.784 7.57734 22.271 8.62266C22.7762 9.70547 23.0288 10.8539 23.0236 12.0398C23.008 14.3742 21.9897 16.5609 20.1564 18.1969Z" fill="white"/>
</svg>